<svg width="56" height="62" viewBox="0 0 56 62" fill="none" xmlns="http://www.w3.org/2000/svg">
<path d="M55.0949 13.1206C51.3825 8.0926 46.1971 4.34483 40.2583 2.39738C34.3194 0.449935 27.9216 0.399393 21.9527 2.25277C15.9839 4.10615 10.7399 7.77153 6.94856 12.7403C3.15722 17.709 1.00654 23.7347 0.794965 29.9811C0.583389 36.2275 2.32141 42.3849 5.76785 47.5988C9.21428 52.8127 14.1982 56.8245 20.028 59.0775C25.8578 61.3306 32.2443 61.713 38.3014 60.1719C44.3584 58.6308 49.7855 55.2425 53.8296 50.4772L52.1949 49.0899C48.4389 53.5158 43.3983 56.6628 37.7727 58.0941C32.1471 59.5255 26.2154 59.1702 20.8009 57.0777C15.3863 54.9851 10.7574 51.2591 7.55642 46.4166C4.35546 41.574 2.74123 35.8552 2.93774 30.0537C3.13424 24.2522 5.13174 18.6557 8.65304 14.0408C12.1743 9.42602 17.0448 6.02171 22.5885 4.30034C28.1323 2.57897 34.0744 2.62591 39.5902 4.43465C45.1061 6.24338 49.9221 9.72421 53.3701 14.3941L55.0949 13.1206Z" fill="#ED7600"/>
</svg>
