<svg width="74" height="81" viewBox="0 0 74 81" fill="none" xmlns="http://www.w3.org/2000/svg">
<path d="M73.0034 16.7403C68.0416 10.02 61.1109 5.01088 53.1733 2.408C45.2356 -0.194889 36.6846 -0.26244 28.7068 2.21471C20.729 4.69187 13.7202 9.59088 8.6528 16.2319C3.58544 22.8729 0.710923 30.9266 0.428138 39.2753C0.145353 47.6241 2.46833 55.8538 7.0747 62.8225C11.6811 69.7912 18.3424 75.1532 26.1343 78.1645C33.9262 81.1758 42.4622 81.687 50.5578 79.6272C58.6533 77.5674 65.907 73.0387 71.3122 66.6696L69.1273 64.8154C64.1071 70.7309 57.3701 74.937 49.8512 76.8501C42.3322 78.7632 34.4042 78.2884 27.1673 75.4916C19.9304 72.6948 13.7435 67.7147 9.46524 61.2423C5.18696 54.77 3.02944 47.1264 3.29209 39.3724C3.55473 31.6183 6.22451 24.1382 10.9309 17.9702C15.6374 11.8022 22.147 7.25213 29.5566 4.95141C36.9661 2.6507 44.9081 2.71343 52.2804 5.13092C59.6527 7.54841 66.0896 12.2008 70.698 18.4424L73.0034 16.7403Z" fill="#ED7600"/>
</svg>
