<svg width="74" height="81" viewBox="0 0 74 81" fill="none" xmlns="http://www.w3.org/2000/svg">
<path d="M73.0034 16.7402C68.0416 10.0199 61.1109 5.01082 53.1733 2.40794C45.2356 -0.19495 36.6846 -0.262501 28.7068 2.21465C20.729 4.69181 13.7202 9.59082 8.6528 16.2318C3.58544 22.8729 0.710923 30.9266 0.428138 39.2753C0.145353 47.624 2.46833 55.8538 7.0747 62.8224C11.6811 69.7911 18.3424 75.1532 26.1343 78.1645C33.9262 81.1758 42.4622 81.687 50.5578 79.6272C58.6533 77.5674 65.907 73.0387 71.3122 66.6696L69.1273 64.8154C64.1071 70.7308 57.3701 74.937 49.8512 76.8501C42.3322 78.7632 34.4042 78.2884 27.1673 75.4915C19.9304 72.6947 13.7435 67.7146 9.46524 61.2423C5.18696 54.7699 3.02944 47.1264 3.29209 39.3723C3.55473 31.6182 6.22451 24.1382 10.9309 17.9701C15.6374 11.8021 22.147 7.25207 29.5566 4.95135C36.9661 2.65063 44.9081 2.71337 52.2804 5.13086C59.6527 7.54835 66.0896 12.2007 70.698 18.4423L73.0034 16.7402Z" fill="#ED7600"/>
</svg>
