<svg width="74" height="81" viewBox="0 0 74 81" fill="none" xmlns="http://www.w3.org/2000/svg">
<path d="M73.5034 16.7403C68.5416 10.02 61.6109 5.01088 53.6733 2.408C45.7356 -0.194889 37.1846 -0.26244 29.2068 2.21471C21.229 4.69187 14.2202 9.59088 9.1528 16.2319C4.08544 22.8729 1.21092 30.9266 0.928138 39.2753C0.645353 47.6241 2.96833 55.8538 7.5747 62.8225C12.1811 69.7912 18.8424 75.1532 26.6343 78.1645C34.4262 81.1758 42.9622 81.687 51.0578 79.6272C59.1533 77.5674 66.407 73.0387 71.8122 66.6696L69.6273 64.8154C64.6071 70.7309 57.8701 74.937 50.3512 76.8501C42.8322 78.7632 34.9042 78.2884 27.6673 75.4916C20.4304 72.6948 14.2435 67.7147 9.96524 61.2423C5.68696 54.77 3.52944 47.1264 3.79209 39.3724C4.05473 31.6183 6.72451 24.1382 11.4309 17.9702C16.1374 11.8022 22.647 7.25213 30.0566 4.95141C37.4661 2.6507 45.4081 2.71343 52.7804 5.13092C60.1527 7.54841 66.5896 12.2008 71.198 18.4424L73.5034 16.7403Z" fill="#ED7600"/>
</svg>
