<svg width="55" height="62" viewBox="0 0 55 62" fill="none" xmlns="http://www.w3.org/2000/svg">
<path d="M54.8527 13.1206C51.1404 8.0926 45.9549 4.34483 40.0161 2.39738C34.0772 0.449935 27.6794 0.399393 21.7106 2.25277C15.7417 4.10615 10.4977 7.77153 6.70637 12.7403C2.91504 17.709 0.764354 23.7347 0.552777 29.9811C0.341201 36.2275 2.07922 42.3849 5.52566 47.5988C8.9721 52.8127 13.956 56.8245 19.7858 59.0775C25.6156 61.3306 32.0022 61.713 38.0592 60.1719C44.1162 58.6308 49.5433 55.2425 53.5874 50.4772L51.9527 49.0899C48.1967 53.5158 43.1561 56.6628 37.5305 58.0941C31.9049 59.5255 25.9733 59.1702 20.5587 57.0777C15.1441 54.9851 10.5152 51.2591 7.31423 46.4166C4.11327 41.574 2.49904 35.8552 2.69555 30.0537C2.89206 24.2522 4.88955 18.6557 8.41085 14.0408C11.9321 9.42602 16.8026 6.02171 22.3463 4.30034C27.8901 2.57897 33.8322 2.62591 39.348 4.43465C44.8639 6.24338 49.68 9.72421 53.1279 14.3941L54.8527 13.1206Z" fill="#ED7600"/>
</svg>
