<svg width="74" height="81" viewBox="0 0 74 81" fill="none" xmlns="http://www.w3.org/2000/svg">
<path d="M73.0034 16.7403C68.0416 10.0201 61.1109 5.01094 53.1733 2.40806C45.2356 -0.194828 36.6846 -0.262379 28.7068 2.21478C20.729 4.69193 13.7202 9.59094 8.6528 16.232C3.58544 22.873 0.710923 30.9267 0.428138 39.2754C0.145353 47.6241 2.46833 55.8539 7.0747 62.8226C11.6811 69.7913 18.3424 75.1533 26.1343 78.1646C33.9262 81.1759 42.4622 81.6871 50.5578 79.6273C58.6533 77.5675 65.907 73.0388 71.3122 66.6697L69.1273 64.8155C64.1071 70.731 57.3701 74.9371 49.8512 76.8502C42.3322 78.7633 34.4042 78.2885 27.1673 75.4917C19.9304 72.6949 13.7435 67.7147 9.46524 61.2424C5.18696 54.7701 3.02944 47.1265 3.29209 39.3724C3.55473 31.6183 6.22451 24.1383 10.9309 17.9703C15.6374 11.8023 22.147 7.25219 29.5566 4.95147C36.9661 2.65076 44.9081 2.7135 52.2804 5.13098C59.6527 7.54848 66.0896 12.2008 70.698 18.4424L73.0034 16.7403Z" fill="#ED7600"/>
</svg>
