<svg width="201" height="358" viewBox="0 0 201 358" fill="none" xmlns="http://www.w3.org/2000/svg">
<circle cx="12" cy="12" r="12" fill="white"/>
<path d="M16.198 16.659V18H9.214V16.659H11.95V8.19C11.95 7.92 11.959 7.641 11.977 7.353L9.781 9.216C9.697 9.282 9.613 9.324 9.529 9.342C9.445 9.36 9.364 9.363 9.286 9.351C9.214 9.339 9.148 9.315 9.088 9.279C9.034 9.237 8.989 9.195 8.953 9.153L8.404 8.388L12.274 5.049H13.705V16.659H16.198Z" fill="#062D52"/>
<path d="M41.08 9.88C41.08 10.7333 41.3067 11.39 41.76 11.85C42.22 12.3033 42.86 12.53 43.68 12.53C44.12 12.53 44.5067 12.46 44.84 12.32C45.18 12.18 45.4667 11.9933 45.7 11.76C45.9333 11.52 46.11 11.2433 46.23 10.93C46.35 10.61 46.41 10.27 46.41 9.91C46.41 9.49 46.3433 9.11667 46.21 8.79C46.0833 8.45667 45.9 8.17333 45.66 7.94C45.4267 7.70667 45.1467 7.53 44.82 7.41C44.4933 7.28333 44.1367 7.22 43.75 7.22C43.3433 7.22 42.9767 7.28667 42.65 7.42C42.3233 7.55333 42.0433 7.74 41.81 7.98C41.5767 8.21333 41.3967 8.49333 41.27 8.82C41.1433 9.14 41.08 9.49333 41.08 9.88ZM44.77 14.35C44.9033 14.1833 45.0267 14.0267 45.14 13.88C45.2533 13.7267 45.36 13.5733 45.46 13.42C45.1133 13.6667 44.7267 13.8567 44.3 13.99C43.8733 14.1167 43.42 14.18 42.94 14.18C42.42 14.18 41.92 14.0933 41.44 13.92C40.96 13.74 40.5333 13.4767 40.16 13.13C39.7867 12.7767 39.4867 12.3433 39.26 11.83C39.04 11.31 38.93 10.7133 38.93 10.04C38.93 9.40667 39.0467 8.81 39.28 8.25C39.52 7.69 39.8533 7.20333 40.28 6.79C40.7067 6.37 41.2167 6.04 41.81 5.8C42.4033 5.56 43.06 5.44 43.78 5.44C44.4933 5.44 45.14 5.55667 45.72 5.79C46.3 6.01667 46.7933 6.34 47.2 6.76C47.6067 7.17333 47.92 7.67 48.14 8.25C48.36 8.82333 48.47 9.45667 48.47 10.15C48.47 10.5833 48.43 10.9933 48.35 11.38C48.2767 11.7667 48.1667 12.1433 48.02 12.51C47.88 12.87 47.7067 13.2267 47.5 13.58C47.3 13.9267 47.0733 14.28 46.82 14.64L43.43 19.5C43.33 19.6467 43.18 19.7667 42.98 19.86C42.7867 19.9533 42.5667 20 42.32 20H40.35L44.77 14.35ZM59.4416 17.97C59.6749 17.97 59.8582 18.04 59.9916 18.18C60.1249 18.3133 60.1916 18.4867 60.1916 18.7V20H50.4516V19.27C50.4516 19.1233 50.4816 18.97 50.5416 18.81C50.6016 18.65 50.6982 18.5033 50.8316 18.37L55.3116 13.88C55.6916 13.5 56.0282 13.1367 56.3216 12.79C56.6216 12.4433 56.8749 12.0967 57.0816 11.75C57.2949 11.4033 57.4549 11.0533 57.5616 10.7C57.6749 10.34 57.7316 9.96333 57.7316 9.57C57.7316 9.19 57.6716 8.85667 57.5516 8.57C57.4382 8.27667 57.2782 8.03667 57.0716 7.85C56.8716 7.65667 56.6282 7.51333 56.3416 7.42C56.0616 7.32 55.7516 7.27 55.4116 7.27C55.0849 7.27 54.7816 7.31667 54.5016 7.41C54.2282 7.50333 53.9816 7.63333 53.7616 7.8C53.5482 7.96667 53.3682 8.16667 53.2216 8.4C53.0816 8.62667 52.9782 8.87667 52.9116 9.15C52.8116 9.42333 52.6816 9.60667 52.5216 9.7C52.3682 9.79333 52.1416 9.81333 51.8416 9.76L50.7116 9.56C50.8116 8.88 50.9982 8.28333 51.2716 7.77C51.5516 7.25667 51.9016 6.83 52.3216 6.49C52.7416 6.14333 53.2216 5.88333 53.7616 5.71C54.3082 5.53 54.8982 5.44 55.5316 5.44C56.1716 5.44 56.7582 5.53667 57.2916 5.73C57.8316 5.91667 58.2949 6.18667 58.6816 6.54C59.0749 6.88667 59.3816 7.31 59.6016 7.81C59.8216 8.31 59.9316 8.87333 59.9316 9.5C59.9316 10.0333 59.8516 10.5267 59.6916 10.98C59.5382 11.4333 59.3282 11.8667 59.0616 12.28C58.7949 12.6933 58.4816 13.0967 58.1216 13.49C57.7682 13.8767 57.3949 14.27 57.0016 14.67L53.5216 18.23C53.8082 18.15 54.0949 18.0867 54.3816 18.04C54.6749 17.9933 54.9516 17.97 55.2116 17.97H59.4416ZM68.5431 9.08C68.5431 9.63333 68.4531 10.13 68.2731 10.57C68.0998 11.01 67.8631 11.3867 67.5631 11.7C67.2631 12.0067 66.9165 12.2433 66.5231 12.41C66.1298 12.57 65.7165 12.65 65.2831 12.65C64.8165 12.65 64.3831 12.57 63.9831 12.41C63.5898 12.2433 63.2465 12.0067 62.9531 11.7C62.6665 11.3867 62.4398 11.01 62.2731 10.57C62.1065 10.13 62.0231 9.63333 62.0231 9.08C62.0231 8.51333 62.1065 8.00667 62.2731 7.56C62.4398 7.10667 62.6665 6.72667 62.9531 6.42C63.2465 6.10667 63.5898 5.86667 63.9831 5.7C64.3831 5.53333 64.8165 5.45 65.2831 5.45C65.7498 5.45 66.1798 5.53333 66.5731 5.7C66.9731 5.86667 67.3165 6.10667 67.6031 6.42C67.8965 6.72667 68.1265 7.10667 68.2931 7.56C68.4598 8.00667 68.5431 8.51333 68.5431 9.08ZM66.8831 9.08C66.8831 8.67333 66.8398 8.33 66.7531 8.05C66.6731 7.76333 66.5598 7.53333 66.4131 7.36C66.2731 7.18 66.1031 7.05333 65.9031 6.98C65.7098 6.9 65.5031 6.86 65.2831 6.86C65.0565 6.86 64.8465 6.9 64.6531 6.98C64.4598 7.05333 64.2931 7.18 64.1531 7.36C64.0131 7.53333 63.9031 7.76333 63.8231 8.05C63.7431 8.33 63.7031 8.67333 63.7031 9.08C63.7031 9.48 63.7431 9.81667 63.8231 10.09C63.9031 10.3633 64.0131 10.5867 64.1531 10.76C64.2931 10.9267 64.4598 11.0467 64.6531 11.12C64.8465 11.1933 65.0565 11.23 65.2831 11.23C65.5031 11.23 65.7098 11.1933 65.9031 11.12C66.1031 11.0467 66.2731 10.9267 66.4131 10.76C66.5598 10.5867 66.6731 10.3633 66.7531 10.09C66.8398 9.81667 66.8831 9.48 66.8831 9.08ZM73.4831 5.95C73.5565 5.85667 73.6431 5.77667 73.7431 5.71C73.8498 5.63667 73.9965 5.6 74.1831 5.6H75.7331L65.1231 19.67C65.0498 19.7633 64.9598 19.8433 64.8531 19.91C64.7465 19.97 64.6165 20 64.4631 20H62.8631L73.4831 5.95ZM76.6031 16.61C76.6031 17.1633 76.5131 17.66 76.3331 18.1C76.1531 18.54 75.9131 18.9133 75.6131 19.22C75.3131 19.5267 74.9665 19.7633 74.5731 19.93C74.1798 20.09 73.7665 20.17 73.3331 20.17C72.8665 20.17 72.4331 20.09 72.0331 19.93C71.6398 19.7633 71.2965 19.5267 71.0031 19.22C70.7165 18.9133 70.4898 18.54 70.3231 18.1C70.1631 17.66 70.0831 17.1633 70.0831 16.61C70.0831 16.0433 70.1631 15.5367 70.3231 15.09C70.4898 14.6367 70.7165 14.2533 71.0031 13.94C71.2965 13.6267 71.6398 13.39 72.0331 13.23C72.4331 13.0633 72.8665 12.98 73.3331 12.98C73.7998 12.98 74.2331 13.0633 74.6331 13.23C75.0331 13.39 75.3765 13.6267 75.6631 13.94C75.9565 14.2533 76.1865 14.6367 76.3531 15.09C76.5198 15.5367 76.6031 16.0433 76.6031 16.61ZM74.9431 16.61C74.9431 16.2033 74.8998 15.86 74.8131 15.58C74.7331 15.2933 74.6198 15.0633 74.4731 14.89C74.3265 14.71 74.1531 14.5833 73.9531 14.51C73.7598 14.43 73.5531 14.39 73.3331 14.39C73.1131 14.39 72.9065 14.43 72.7131 14.51C72.5198 14.5833 72.3498 14.71 72.2031 14.89C72.0631 15.0633 71.9531 15.2933 71.8731 15.58C71.7931 15.86 71.7531 16.2033 71.7531 16.61C71.7531 17.01 71.7931 17.3467 71.8731 17.62C71.9531 17.8933 72.0631 18.1167 72.2031 18.29C72.3498 18.4567 72.5198 18.5767 72.7131 18.65C72.9065 18.7233 73.1131 18.76 73.3331 18.76C73.5531 18.76 73.7598 18.7233 73.9531 18.65C74.1531 18.5767 74.3265 18.4567 74.4731 18.29C74.6198 18.1167 74.7331 17.8933 74.8131 17.62C74.8998 17.3467 74.9431 17.01 74.9431 16.61ZM88.5845 12.94C89.1045 12.94 89.5612 12.8733 89.9545 12.74C90.3545 12.6067 90.6845 12.42 90.9445 12.18C91.2112 11.9333 91.4112 11.6367 91.5445 11.29C91.6779 10.9433 91.7445 10.5567 91.7445 10.13C91.7445 9.71 91.6779 9.33333 91.5445 9C91.4179 8.66667 91.2245 8.38333 90.9645 8.15C90.7045 7.91667 90.3745 7.74 89.9745 7.62C89.5812 7.49333 89.1179 7.43 88.5845 7.43H86.4445V12.94H88.5845ZM88.5845 5.6C89.5245 5.6 90.3379 5.71 91.0245 5.93C91.7179 6.15 92.2879 6.46 92.7345 6.86C93.1879 7.25333 93.5245 7.73 93.7445 8.29C93.9645 8.84333 94.0745 9.45667 94.0745 10.13C94.0745 10.8167 93.9579 11.4467 93.7245 12.02C93.4912 12.5867 93.1445 13.0767 92.6845 13.49C92.2245 13.8967 91.6512 14.2167 90.9645 14.45C90.2845 14.6767 89.4912 14.79 88.5845 14.79H86.4445V20H84.1045V5.6H88.5845ZM98.043 5.2V20H95.893V5.2H98.043ZM106.147 15.54C105.38 15.5667 104.733 15.63 104.207 15.73C103.68 15.8233 103.253 15.9467 102.927 16.1C102.6 16.2467 102.363 16.4233 102.217 16.63C102.077 16.8367 102.007 17.0633 102.007 17.31C102.007 17.55 102.043 17.7567 102.117 17.93C102.197 18.0967 102.303 18.2367 102.437 18.35C102.577 18.4567 102.737 18.5367 102.917 18.59C103.103 18.6367 103.307 18.66 103.527 18.66C104.087 18.66 104.567 18.5567 104.967 18.35C105.373 18.1367 105.767 17.83 106.147 17.43V15.54ZM100.447 11.22C101.6 10.1467 102.973 9.61 104.567 9.61C105.153 9.61 105.673 9.70667 106.127 9.9C106.587 10.0867 106.97 10.3533 107.277 10.7C107.59 11.0467 107.827 11.46 107.987 11.94C108.153 12.4133 108.237 12.94 108.237 13.52V20H107.277C107.07 20 106.913 19.97 106.807 19.91C106.7 19.8433 106.61 19.7133 106.537 19.52L106.327 18.69C106.067 18.9233 105.81 19.1333 105.557 19.32C105.303 19.5 105.04 19.6533 104.767 19.78C104.5 19.9067 104.21 20 103.897 20.06C103.59 20.1267 103.25 20.16 102.877 20.16C102.463 20.16 102.077 20.1033 101.717 19.99C101.363 19.8767 101.057 19.7067 100.797 19.48C100.537 19.2467 100.33 18.96 100.177 18.62C100.03 18.28 99.9567 17.88 99.9567 17.42C99.9567 17.0267 100.06 16.6433 100.267 16.27C100.48 15.8967 100.827 15.5633 101.307 15.27C101.793 14.97 102.43 14.7233 103.217 14.53C104.01 14.3367 104.987 14.2267 106.147 14.2V13.52C106.147 12.7867 105.99 12.24 105.677 11.88C105.363 11.52 104.903 11.34 104.297 11.34C103.883 11.34 103.537 11.3933 103.257 11.5C102.977 11.6 102.733 11.71 102.527 11.83C102.32 11.95 102.137 12.0633 101.977 12.17C101.817 12.27 101.647 12.32 101.467 12.32C101.32 12.32 101.193 12.2833 101.087 12.21C100.987 12.13 100.903 12.0333 100.837 11.92L100.447 11.22ZM117.965 11.8C117.899 11.8867 117.835 11.9533 117.775 12C117.715 12.0467 117.629 12.07 117.515 12.07C117.402 12.07 117.282 12.03 117.155 11.95C117.035 11.87 116.889 11.7833 116.715 11.69C116.549 11.59 116.345 11.5 116.105 11.42C115.865 11.34 115.565 11.3 115.205 11.3C114.739 11.3 114.329 11.3833 113.975 11.55C113.629 11.7167 113.335 11.9567 113.095 12.27C112.862 12.5767 112.685 12.9533 112.565 13.4C112.452 13.84 112.395 14.3367 112.395 14.89C112.395 15.4633 112.459 15.9733 112.585 16.42C112.712 16.8667 112.892 17.2433 113.125 17.55C113.365 17.8567 113.652 18.09 113.985 18.25C114.325 18.41 114.705 18.49 115.125 18.49C115.539 18.49 115.875 18.44 116.135 18.34C116.395 18.24 116.612 18.13 116.785 18.01C116.959 17.89 117.105 17.78 117.225 17.68C117.352 17.58 117.485 17.53 117.625 17.53C117.799 17.53 117.932 17.5967 118.025 17.73L118.635 18.52C118.389 18.82 118.115 19.0733 117.815 19.28C117.515 19.4867 117.199 19.6567 116.865 19.79C116.532 19.9167 116.185 20.0067 115.825 20.06C115.465 20.12 115.102 20.15 114.735 20.15C114.102 20.15 113.509 20.0333 112.955 19.8C112.409 19.56 111.929 19.2167 111.515 18.77C111.109 18.3167 110.785 17.7667 110.545 17.12C110.312 16.4667 110.195 15.7233 110.195 14.89C110.195 14.1367 110.302 13.44 110.515 12.8C110.729 12.1533 111.039 11.5967 111.445 11.13C111.859 10.6633 112.369 10.3 112.975 10.04C113.582 9.77333 114.282 9.64 115.075 9.64C115.815 9.64 116.465 9.76 117.025 10C117.592 10.24 118.095 10.58 118.535 11.02L117.965 11.8ZM126.879 13.75C126.879 13.39 126.826 13.0567 126.719 12.75C126.619 12.4367 126.469 12.1667 126.269 11.94C126.069 11.7067 125.819 11.5267 125.519 11.4C125.226 11.2667 124.886 11.2 124.499 11.2C123.719 11.2 123.106 11.4233 122.659 11.87C122.212 12.3167 121.929 12.9433 121.809 13.75H126.879ZM121.749 15.07C121.776 15.65 121.866 16.1533 122.019 16.58C122.172 17 122.376 17.35 122.629 17.63C122.889 17.91 123.196 18.12 123.549 18.26C123.909 18.3933 124.309 18.46 124.749 18.46C125.169 18.46 125.532 18.4133 125.839 18.32C126.146 18.22 126.412 18.1133 126.639 18C126.866 17.88 127.059 17.7733 127.219 17.68C127.379 17.58 127.526 17.53 127.659 17.53C127.832 17.53 127.966 17.5967 128.059 17.73L128.669 18.52C128.416 18.82 128.129 19.0733 127.809 19.28C127.489 19.4867 127.149 19.6567 126.789 19.79C126.429 19.9167 126.059 20.0067 125.679 20.06C125.299 20.12 124.929 20.15 124.569 20.15C123.862 20.15 123.206 20.0333 122.599 19.8C121.999 19.56 121.476 19.21 121.029 18.75C120.589 18.29 120.242 17.72 119.989 17.04C119.742 16.36 119.619 15.5767 119.619 14.69C119.619 13.9833 119.729 13.3233 119.949 12.71C120.176 12.0967 120.496 11.5633 120.909 11.11C121.329 10.6567 121.836 10.3 122.429 10.04C123.029 9.77333 123.706 9.64 124.459 9.64C125.086 9.64 125.666 9.74333 126.199 9.95C126.732 10.15 127.192 10.4467 127.579 10.84C127.966 11.2333 128.266 11.7167 128.479 12.29C128.699 12.8567 128.809 13.5033 128.809 14.23C128.809 14.5633 128.772 14.7867 128.699 14.9C128.626 15.0133 128.492 15.07 128.299 15.07H121.749ZM130.814 20V9.8H132.114C132.407 9.8 132.594 9.93667 132.674 10.21L132.814 11.1C133.001 10.8867 133.194 10.6933 133.394 10.52C133.594 10.34 133.807 10.1867 134.034 10.06C134.267 9.92667 134.514 9.82333 134.774 9.75C135.041 9.67667 135.327 9.64 135.634 9.64C135.961 9.64 136.261 9.68667 136.534 9.78C136.807 9.87333 137.047 10.0067 137.254 10.18C137.467 10.3533 137.651 10.5633 137.804 10.81C137.957 11.0567 138.084 11.3333 138.184 11.64C138.337 11.2867 138.531 10.9833 138.764 10.73C138.997 10.4767 139.257 10.27 139.544 10.11C139.831 9.95 140.134 9.83333 140.454 9.76C140.781 9.68 141.111 9.64 141.444 9.64C141.991 9.64 142.477 9.72667 142.904 9.9C143.337 10.0733 143.701 10.3267 143.994 10.66C144.294 10.9867 144.521 11.39 144.674 11.87C144.827 12.35 144.904 12.8967 144.904 13.51V20H142.754V13.51C142.754 12.79 142.597 12.25 142.284 11.89C141.977 11.5233 141.521 11.34 140.914 11.34C140.641 11.34 140.384 11.3867 140.144 11.48C139.904 11.5733 139.694 11.71 139.514 11.89C139.334 12.07 139.191 12.2967 139.084 12.57C138.984 12.8367 138.934 13.15 138.934 13.51V20H136.784V13.51C136.784 12.7633 136.634 12.2167 136.334 11.87C136.034 11.5167 135.594 11.34 135.014 11.34C134.614 11.34 134.244 11.4433 133.904 11.65C133.564 11.85 133.251 12.1267 132.964 12.48V20H130.814ZM154.105 13.75C154.105 13.39 154.052 13.0567 153.945 12.75C153.845 12.4367 153.695 12.1667 153.495 11.94C153.295 11.7067 153.045 11.5267 152.745 11.4C152.452 11.2667 152.112 11.2 151.725 11.2C150.945 11.2 150.332 11.4233 149.885 11.87C149.439 12.3167 149.155 12.9433 149.035 13.75H154.105ZM148.975 15.07C149.002 15.65 149.092 16.1533 149.245 16.58C149.399 17 149.602 17.35 149.855 17.63C150.115 17.91 150.422 18.12 150.775 18.26C151.135 18.3933 151.535 18.46 151.975 18.46C152.395 18.46 152.759 18.4133 153.065 18.32C153.372 18.22 153.639 18.1133 153.865 18C154.092 17.88 154.285 17.7733 154.445 17.68C154.605 17.58 154.752 17.53 154.885 17.53C155.059 17.53 155.192 17.5967 155.285 17.73L155.895 18.52C155.642 18.82 155.355 19.0733 155.035 19.28C154.715 19.4867 154.375 19.6567 154.015 19.79C153.655 19.9167 153.285 20.0067 152.905 20.06C152.525 20.12 152.155 20.15 151.795 20.15C151.089 20.15 150.432 20.0333 149.825 19.8C149.225 19.56 148.702 19.21 148.255 18.75C147.815 18.29 147.469 17.72 147.215 17.04C146.969 16.36 146.845 15.5767 146.845 14.69C146.845 13.9833 146.955 13.3233 147.175 12.71C147.402 12.0967 147.722 11.5633 148.135 11.11C148.555 10.6567 149.062 10.3 149.655 10.04C150.255 9.77333 150.932 9.64 151.685 9.64C152.312 9.64 152.892 9.74333 153.425 9.95C153.959 10.15 154.419 10.4467 154.805 10.84C155.192 11.2333 155.492 11.7167 155.705 12.29C155.925 12.8567 156.035 13.5033 156.035 14.23C156.035 14.5633 155.999 14.7867 155.925 14.9C155.852 15.0133 155.719 15.07 155.525 15.07H148.975ZM160.05 11.15C160.27 10.9233 160.497 10.72 160.73 10.54C160.97 10.3533 161.224 10.1933 161.49 10.06C161.757 9.92667 162.04 9.82333 162.34 9.75C162.64 9.67667 162.967 9.64 163.32 9.64C163.88 9.64 164.37 9.73333 164.79 9.92C165.217 10.1067 165.574 10.37 165.86 10.71C166.154 11.05 166.374 11.46 166.52 11.94C166.667 12.4133 166.74 12.9367 166.74 13.51V20H164.6V13.51C164.6 12.8233 164.44 12.29 164.12 11.91C163.807 11.53 163.327 11.34 162.68 11.34C162.2 11.34 161.754 11.45 161.34 11.67C160.934 11.89 160.55 12.19 160.19 12.57V20H158.04V9.8H159.34C159.634 9.8 159.82 9.93667 159.9 10.21L160.05 11.15ZM172.385 20.16C171.538 20.16 170.885 19.9233 170.425 19.45C169.971 18.97 169.745 18.2967 169.745 17.43V11.49H168.625C168.505 11.49 168.401 11.4533 168.315 11.38C168.228 11.3 168.185 11.1833 168.185 11.03V10.16L169.835 9.92L170.305 6.97C170.338 6.85667 170.395 6.76667 170.475 6.7C170.555 6.62667 170.661 6.59 170.795 6.59H171.895V9.94H174.725V11.49H171.895V17.28C171.895 17.6467 171.985 17.9267 172.165 18.12C172.345 18.3133 172.585 18.41 172.885 18.41C173.051 18.41 173.195 18.39 173.315 18.35C173.435 18.3033 173.538 18.2567 173.625 18.21C173.711 18.1567 173.785 18.11 173.845 18.07C173.911 18.0233 173.975 18 174.035 18C174.155 18 174.251 18.0667 174.325 18.2L174.965 19.25C174.631 19.5433 174.238 19.77 173.785 19.93C173.331 20.0833 172.865 20.16 172.385 20.16ZM43.89 36.5C44.4233 36.5 44.89 36.4367 45.29 36.31C45.69 36.1767 46.0233 35.9933 46.29 35.76C46.5567 35.5267 46.7567 35.25 46.89 34.93C47.0233 34.6033 47.09 34.2433 47.09 33.85C47.09 33.0633 46.83 32.4633 46.31 32.05C45.79 31.6367 45.0033 31.43 43.95 31.43H42.05V36.5H43.89ZM50.67 44H48.58C48.1667 44 47.8667 43.84 47.68 43.52L44.32 38.67C44.2067 38.5033 44.0833 38.3833 43.95 38.31C43.8167 38.2367 43.6167 38.2 43.35 38.2H42.05V44H39.71V29.6H43.95C44.8967 29.6 45.71 29.6967 46.39 29.89C47.0767 30.0833 47.64 30.36 48.08 30.72C48.52 31.0733 48.8433 31.5 49.05 32C49.2633 32.5 49.37 33.0567 49.37 33.67C49.37 34.17 49.2933 34.6367 49.14 35.07C48.9933 35.5033 48.7767 35.8967 48.49 36.25C48.21 36.6033 47.8633 36.91 47.45 37.17C47.0367 37.43 46.5667 37.6333 46.04 37.78C46.3267 37.9533 46.5733 38.1967 46.78 38.51L50.67 44ZM57.2991 39.54C56.5324 39.5667 55.8857 39.63 55.3591 39.73C54.8324 39.8233 54.4057 39.9467 54.0791 40.1C53.7524 40.2467 53.5157 40.4233 53.3691 40.63C53.2291 40.8367 53.1591 41.0633 53.1591 41.31C53.1591 41.55 53.1957 41.7567 53.2691 41.93C53.3491 42.0967 53.4557 42.2367 53.5891 42.35C53.7291 42.4567 53.8891 42.5367 54.0691 42.59C54.2557 42.6367 54.4591 42.66 54.6791 42.66C55.2391 42.66 55.7191 42.5567 56.1191 42.35C56.5257 42.1367 56.9191 41.83 57.2991 41.43V39.54ZM51.5991 35.22C52.7524 34.1467 54.1257 33.61 55.7191 33.61C56.3057 33.61 56.8257 33.7067 57.2791 33.9C57.7391 34.0867 58.1224 34.3533 58.4291 34.7C58.7424 35.0467 58.9791 35.46 59.1391 35.94C59.3057 36.4133 59.3891 36.94 59.3891 37.52V44H58.4291C58.2224 44 58.0657 43.97 57.9591 43.91C57.8524 43.8433 57.7624 43.7133 57.6891 43.52L57.4791 42.69C57.2191 42.9233 56.9624 43.1333 56.7091 43.32C56.4557 43.5 56.1924 43.6533 55.9191 43.78C55.6524 43.9067 55.3624 44 55.0491 44.06C54.7424 44.1267 54.4024 44.16 54.0291 44.16C53.6157 44.16 53.2291 44.1033 52.8691 43.99C52.5157 43.8767 52.2091 43.7067 51.9491 43.48C51.6891 43.2467 51.4824 42.96 51.3291 42.62C51.1824 42.28 51.1091 41.88 51.1091 41.42C51.1091 41.0267 51.2124 40.6433 51.4191 40.27C51.6324 39.8967 51.9791 39.5633 52.4591 39.27C52.9457 38.97 53.5824 38.7233 54.3691 38.53C55.1624 38.3367 56.1391 38.2267 57.2991 38.2V37.52C57.2991 36.7867 57.1424 36.24 56.8291 35.88C56.5157 35.52 56.0557 35.34 55.4491 35.34C55.0357 35.34 54.6891 35.3933 54.4091 35.5C54.1291 35.6 53.8857 35.71 53.6791 35.83C53.4724 35.95 53.2891 36.0633 53.1291 36.17C52.9691 36.27 52.7991 36.32 52.6191 36.32C52.4724 36.32 52.3457 36.2833 52.2391 36.21C52.1391 36.13 52.0557 36.0333 51.9891 35.92L51.5991 35.22ZM65.0409 44.16C64.1943 44.16 63.5409 43.9233 63.0809 43.45C62.6276 42.97 62.4009 42.2967 62.4009 41.43V35.49H61.2809C61.1609 35.49 61.0576 35.4533 60.9709 35.38C60.8843 35.3 60.8409 35.1833 60.8409 35.03V34.16L62.4909 33.92L62.9609 30.97C62.9943 30.8567 63.0509 30.7667 63.1309 30.7C63.2109 30.6267 63.3176 30.59 63.4509 30.59H64.5509V33.94H67.3809V35.49H64.5509V41.28C64.5509 41.6467 64.6409 41.9267 64.8209 42.12C65.0009 42.3133 65.2409 42.41 65.5409 42.41C65.7076 42.41 65.8509 42.39 65.9709 42.35C66.0909 42.3033 66.1943 42.2567 66.2809 42.21C66.3676 42.1567 66.4409 42.11 66.5009 42.07C66.5676 42.0233 66.6309 42 66.6909 42C66.8109 42 66.9076 42.0667 66.9809 42.2L67.6209 43.25C67.2876 43.5433 66.8943 43.77 66.4409 43.93C65.9876 44.0833 65.5209 44.16 65.0409 44.16ZM75.6875 37.75C75.6875 37.39 75.6342 37.0567 75.5275 36.75C75.4275 36.4367 75.2775 36.1667 75.0775 35.94C74.8775 35.7067 74.6275 35.5267 74.3275 35.4C74.0342 35.2667 73.6942 35.2 73.3075 35.2C72.5275 35.2 71.9142 35.4233 71.4675 35.87C71.0208 36.3167 70.7375 36.9433 70.6175 37.75H75.6875ZM70.5575 39.07C70.5842 39.65 70.6742 40.1533 70.8275 40.58C70.9808 41 71.1842 41.35 71.4375 41.63C71.6975 41.91 72.0042 42.12 72.3575 42.26C72.7175 42.3933 73.1175 42.46 73.5575 42.46C73.9775 42.46 74.3408 42.4133 74.6475 42.32C74.9542 42.22 75.2208 42.1133 75.4475 42C75.6742 41.88 75.8675 41.7733 76.0275 41.68C76.1875 41.58 76.3342 41.53 76.4675 41.53C76.6408 41.53 76.7742 41.5967 76.8675 41.73L77.4775 42.52C77.2242 42.82 76.9375 43.0733 76.6175 43.28C76.2975 43.4867 75.9575 43.6567 75.5975 43.79C75.2375 43.9167 74.8675 44.0067 74.4875 44.06C74.1075 44.12 73.7375 44.15 73.3775 44.15C72.6708 44.15 72.0142 44.0333 71.4075 43.8C70.8075 43.56 70.2842 43.21 69.8375 42.75C69.3975 42.29 69.0508 41.72 68.7975 41.04C68.5508 40.36 68.4275 39.5767 68.4275 38.69C68.4275 37.9833 68.5375 37.3233 68.7575 36.71C68.9842 36.0967 69.3042 35.5633 69.7175 35.11C70.1375 34.6567 70.6442 34.3 71.2375 34.04C71.8375 33.7733 72.5142 33.64 73.2675 33.64C73.8942 33.64 74.4742 33.7433 75.0075 33.95C75.5408 34.15 76.0008 34.4467 76.3875 34.84C76.7742 35.2333 77.0742 35.7167 77.2875 36.29C77.5075 36.8567 77.6175 37.5033 77.6175 38.23C77.6175 38.5633 77.5808 38.7867 77.5075 38.9C77.4342 39.0133 77.3008 39.07 77.1075 39.07H70.5575Z" fill="white"/>
<circle cx="12" cy="155" r="12" fill="white"/>
<path d="M8.116 151.595C8.206 150.995 8.374 150.467 8.62 150.011C8.866 149.555 9.175 149.174 9.547 148.868C9.919 148.556 10.345 148.322 10.825 148.166C11.311 148.01 11.833 147.932 12.391 147.932C12.949 147.932 13.462 148.013 13.93 148.175C14.398 148.331 14.797 148.556 15.127 148.85C15.463 149.138 15.724 149.486 15.91 149.894C16.096 150.302 16.189 150.752 16.189 151.244C16.189 151.658 16.138 152.024 16.036 152.342C15.934 152.66 15.787 152.939 15.595 153.179C15.409 153.419 15.181 153.623 14.911 153.791C14.641 153.953 14.338 154.088 14.002 154.196C14.824 154.424 15.442 154.796 15.856 155.312C16.27 155.822 16.477 156.47 16.477 157.256C16.477 157.862 16.363 158.408 16.135 158.894C15.907 159.374 15.595 159.782 15.199 160.118C14.803 160.448 14.341 160.703 13.813 160.883C13.291 161.057 12.733 161.144 12.139 161.144C11.461 161.144 10.879 161.063 10.393 160.901C9.907 160.733 9.493 160.502 9.151 160.208C8.809 159.908 8.524 159.551 8.296 159.137C8.074 158.717 7.885 158.258 7.729 157.76L8.494 157.436C8.692 157.352 8.884 157.328 9.07 157.364C9.256 157.4 9.391 157.505 9.475 157.679C9.565 157.859 9.667 158.063 9.781 158.291C9.901 158.513 10.06 158.726 10.258 158.93C10.456 159.128 10.702 159.296 10.996 159.434C11.296 159.572 11.671 159.641 12.121 159.641C12.553 159.641 12.931 159.572 13.255 159.434C13.579 159.29 13.849 159.107 14.065 158.885C14.281 158.657 14.443 158.405 14.551 158.129C14.659 157.853 14.713 157.58 14.713 157.31C14.713 156.974 14.671 156.665 14.587 156.383C14.503 156.101 14.341 155.861 14.101 155.663C13.867 155.459 13.54 155.3 13.12 155.186C12.7 155.072 12.154 155.015 11.482 155.015V153.737C12.034 153.731 12.499 153.674 12.877 153.566C13.261 153.458 13.57 153.308 13.804 153.116C14.038 152.924 14.206 152.696 14.308 152.432C14.416 152.168 14.47 151.874 14.47 151.55C14.47 151.196 14.416 150.887 14.308 150.623C14.2 150.359 14.047 150.14 13.849 149.966C13.657 149.786 13.426 149.654 13.156 149.57C12.892 149.48 12.604 149.435 12.292 149.435C11.98 149.435 11.692 149.48 11.428 149.57C11.164 149.66 10.93 149.786 10.726 149.948C10.522 150.11 10.351 150.302 10.213 150.524C10.075 150.746 9.976 150.986 9.916 151.244C9.832 151.472 9.724 151.625 9.592 151.703C9.466 151.781 9.283 151.799 9.043 151.757L8.116 151.595Z" fill="#062D52"/>
<path d="M43.89 155.5C44.4233 155.5 44.89 155.437 45.29 155.31C45.69 155.177 46.0233 154.993 46.29 154.76C46.5567 154.527 46.7567 154.25 46.89 153.93C47.0233 153.603 47.09 153.243 47.09 152.85C47.09 152.063 46.83 151.463 46.31 151.05C45.79 150.637 45.0033 150.43 43.95 150.43H42.05V155.5H43.89ZM50.67 163H48.58C48.1667 163 47.8667 162.84 47.68 162.52L44.32 157.67C44.2067 157.503 44.0833 157.383 43.95 157.31C43.8167 157.237 43.6167 157.2 43.35 157.2H42.05V163H39.71V148.6H43.95C44.8967 148.6 45.71 148.697 46.39 148.89C47.0767 149.083 47.64 149.36 48.08 149.72C48.52 150.073 48.8433 150.5 49.05 151C49.2633 151.5 49.37 152.057 49.37 152.67C49.37 153.17 49.2933 153.637 49.14 154.07C48.9933 154.503 48.7767 154.897 48.49 155.25C48.21 155.603 47.8633 155.91 47.45 156.17C47.0367 156.43 46.5667 156.633 46.04 156.78C46.3267 156.953 46.5733 157.197 46.78 157.51L50.67 163ZM57.9391 154.65C57.8857 154.743 57.8257 154.81 57.7591 154.85C57.6924 154.89 57.6091 154.91 57.5091 154.91C57.3957 154.91 57.2724 154.877 57.1391 154.81C57.0057 154.737 56.8491 154.657 56.6691 154.57C56.4891 154.483 56.2757 154.407 56.0291 154.34C55.7891 154.267 55.5057 154.23 55.1791 154.23C54.9124 154.23 54.6691 154.263 54.4491 154.33C54.2357 154.39 54.0524 154.48 53.8991 154.6C53.7524 154.713 53.6391 154.85 53.5591 155.01C53.4791 155.163 53.4391 155.33 53.4391 155.51C53.4391 155.75 53.5124 155.95 53.6591 156.11C53.8057 156.27 53.9991 156.41 54.2391 156.53C54.4791 156.643 54.7524 156.747 55.0591 156.84C55.3657 156.933 55.6791 157.033 55.9991 157.14C56.3191 157.247 56.6324 157.37 56.9391 157.51C57.2457 157.65 57.5191 157.823 57.7591 158.03C57.9991 158.23 58.1924 158.477 58.3391 158.77C58.4857 159.057 58.5591 159.407 58.5591 159.82C58.5591 160.3 58.4724 160.743 58.2991 161.15C58.1257 161.557 57.8724 161.91 57.5391 162.21C57.2057 162.51 56.7891 162.743 56.2891 162.91C55.7957 163.077 55.2291 163.16 54.5891 163.16C54.2357 163.16 53.8924 163.127 53.5591 163.06C53.2324 163 52.9191 162.917 52.6191 162.81C52.3257 162.697 52.0491 162.563 51.7891 162.41C51.5357 162.257 51.3091 162.09 51.1091 161.91L51.6091 161.09C51.6691 160.99 51.7424 160.913 51.8291 160.86C51.9224 160.8 52.0357 160.77 52.1691 160.77C52.3091 160.77 52.4457 160.817 52.5791 160.91C52.7191 160.997 52.8791 161.093 53.0591 161.2C53.2457 161.307 53.4691 161.407 53.7291 161.5C53.9891 161.587 54.3124 161.63 54.6991 161.63C55.0191 161.63 55.2957 161.593 55.5291 161.52C55.7624 161.44 55.9557 161.333 56.1091 161.2C56.2624 161.067 56.3757 160.917 56.4491 160.75C56.5224 160.577 56.5591 160.393 56.5591 160.2C56.5591 159.94 56.4857 159.727 56.3391 159.56C56.1924 159.393 55.9957 159.25 55.7491 159.13C55.5091 159.01 55.2324 158.903 54.9191 158.81C54.6124 158.717 54.2991 158.617 53.9791 158.51C53.6591 158.403 53.3424 158.28 53.0291 158.14C52.7224 158 52.4457 157.823 52.1991 157.61C51.9591 157.39 51.7657 157.127 51.6191 156.82C51.4724 156.507 51.3991 156.127 51.3991 155.68C51.3991 155.273 51.4791 154.887 51.6391 154.52C51.8057 154.153 52.0457 153.83 52.3591 153.55C52.6791 153.27 53.0691 153.05 53.5291 152.89C53.9957 152.723 54.5324 152.64 55.1391 152.64C55.8257 152.64 56.4491 152.75 57.0091 152.97C57.5691 153.19 58.0391 153.49 58.4191 153.87L57.9391 154.65ZM70.03 161.38C70.4633 161.38 70.86 161.31 71.22 161.17C71.58 161.023 71.8867 160.823 72.14 160.57C72.4 160.317 72.6 160.017 72.74 159.67C72.88 159.323 72.95 158.947 72.95 158.54C72.95 158.1 72.88 157.707 72.74 157.36C72.6067 157.007 72.4133 156.71 72.16 156.47C71.9133 156.23 71.6133 156.047 71.26 155.92C70.9133 155.787 70.53 155.72 70.11 155.72C69.6767 155.72 69.2833 155.793 68.93 155.94C68.5833 156.087 68.2867 156.287 68.04 156.54C67.7933 156.793 67.6033 157.09 67.47 157.43C67.3367 157.77 67.27 158.13 67.27 158.51C67.27 158.937 67.33 159.327 67.45 159.68C67.57 160.033 67.7467 160.337 67.98 160.59C68.2133 160.837 68.5 161.03 68.84 161.17C69.1867 161.31 69.5833 161.38 70.03 161.38ZM69.24 153.9C69.1333 154.033 69.03 154.16 68.93 154.28C68.8367 154.4 68.7433 154.52 68.65 154.64C68.9567 154.467 69.2933 154.33 69.66 154.23C70.0267 154.13 70.42 154.08 70.84 154.08C71.4 154.08 71.9367 154.173 72.45 154.36C72.9633 154.54 73.4133 154.813 73.8 155.18C74.1933 155.54 74.5067 155.99 74.74 156.53C74.9733 157.063 75.09 157.68 75.09 158.38C75.09 159.047 74.9667 159.67 74.72 160.25C74.48 160.83 74.14 161.337 73.7 161.77C73.26 162.197 72.73 162.537 72.11 162.79C71.4967 163.037 70.8167 163.16 70.07 163.16C69.3233 163.16 68.65 163.04 68.05 162.8C67.45 162.56 66.9367 162.223 66.51 161.79C66.09 161.35 65.7667 160.823 65.54 160.21C65.3133 159.597 65.2 158.913 65.2 158.16C65.2 157.507 65.34 156.823 65.62 156.11C65.9 155.397 66.3333 154.647 66.92 153.86L70.46 149.11C70.5667 148.97 70.72 148.85 70.92 148.75C71.1267 148.65 71.3567 148.6 71.61 148.6H73.51L69.24 153.9ZM76.8316 161.76C76.8316 161.567 76.8649 161.387 76.9316 161.22C77.0049 161.047 77.1016 160.897 77.2216 160.77C77.3482 160.643 77.4949 160.543 77.6616 160.47C77.8349 160.397 78.0182 160.36 78.2116 160.36C78.4049 160.36 78.5849 160.397 78.7516 160.47C78.9249 160.543 79.0749 160.643 79.2016 160.77C79.3282 160.897 79.4282 161.047 79.5016 161.22C79.5749 161.387 79.6116 161.567 79.6116 161.76C79.6116 161.96 79.5749 162.143 79.5016 162.31C79.4282 162.477 79.3282 162.623 79.2016 162.75C79.0749 162.877 78.9249 162.973 78.7516 163.04C78.5849 163.113 78.4049 163.15 78.2116 163.15C78.0182 163.15 77.8349 163.113 77.6616 163.04C77.4949 162.973 77.3482 162.877 77.2216 162.75C77.1016 162.623 77.0049 162.477 76.9316 162.31C76.8649 162.143 76.8316 161.96 76.8316 161.76ZM87.7881 157.68V152.42C87.7881 152 87.8181 151.54 87.8781 151.04L83.0381 157.68H87.7881ZM91.6481 157.68V158.92C91.6481 159.04 91.6081 159.143 91.5281 159.23C91.4548 159.317 91.3415 159.36 91.1881 159.36H89.6581V163H87.7881V159.36H81.5581C81.4048 159.36 81.2715 159.317 81.1581 159.23C81.0515 159.137 80.9815 159.023 80.9481 158.89L80.7281 157.79L87.6381 148.59H89.6581V157.68H91.6481ZM96.0297 153.92C96.3764 153.847 96.7064 153.793 97.0197 153.76C97.3397 153.727 97.6464 153.71 97.9397 153.71C98.693 153.71 99.3564 153.823 99.9297 154.05C100.51 154.27 100.993 154.577 101.38 154.97C101.773 155.363 102.066 155.827 102.26 156.36C102.46 156.887 102.56 157.46 102.56 158.08C102.56 158.847 102.426 159.543 102.16 160.17C101.893 160.797 101.523 161.333 101.05 161.78C100.576 162.22 100.016 162.56 99.3697 162.8C98.7297 163.04 98.0364 163.16 97.2897 163.16C96.8497 163.16 96.4297 163.117 96.0297 163.03C95.6364 162.943 95.2664 162.827 94.9197 162.68C94.573 162.527 94.253 162.353 93.9597 162.16C93.6664 161.96 93.403 161.753 93.1697 161.54L93.8297 160.62C93.9697 160.42 94.1564 160.32 94.3897 160.32C94.5364 160.32 94.6964 160.373 94.8697 160.48C95.043 160.587 95.243 160.703 95.4697 160.83C95.703 160.95 95.9764 161.063 96.2897 161.17C96.603 161.277 96.9764 161.33 97.4097 161.33C97.883 161.33 98.3064 161.253 98.6797 161.1C99.053 160.947 99.3664 160.733 99.6197 160.46C99.8797 160.18 100.076 159.847 100.21 159.46C100.343 159.073 100.41 158.65 100.41 158.19C100.41 157.77 100.346 157.393 100.22 157.06C100.1 156.727 99.9164 156.443 99.6697 156.21C99.4297 155.977 99.1264 155.8 98.7597 155.68C98.393 155.553 97.9697 155.49 97.4897 155.49C97.1364 155.49 96.773 155.52 96.3997 155.58C96.033 155.64 95.6597 155.733 95.2797 155.86L93.9397 155.48L95.1197 148.6H102.09V149.53C102.09 149.837 101.993 150.087 101.8 150.28C101.606 150.473 101.283 150.57 100.83 150.57H96.6097L96.0297 153.92ZM118.792 161.04V163H110.472V148.6H112.812V161.04H118.792ZM125.284 155.94C125.804 155.94 126.26 155.873 126.654 155.74C127.054 155.607 127.384 155.42 127.644 155.18C127.91 154.933 128.11 154.637 128.244 154.29C128.377 153.943 128.444 153.557 128.444 153.13C128.444 152.71 128.377 152.333 128.244 152C128.117 151.667 127.924 151.383 127.664 151.15C127.404 150.917 127.074 150.74 126.674 150.62C126.28 150.493 125.817 150.43 125.284 150.43H123.144V155.94H125.284ZM125.284 148.6C126.224 148.6 127.037 148.71 127.724 148.93C128.417 149.15 128.987 149.46 129.434 149.86C129.887 150.253 130.224 150.73 130.444 151.29C130.664 151.843 130.774 152.457 130.774 153.13C130.774 153.817 130.657 154.447 130.424 155.02C130.19 155.587 129.844 156.077 129.384 156.49C128.924 156.897 128.35 157.217 127.664 157.45C126.984 157.677 126.19 157.79 125.284 157.79H123.144V163H120.804V148.6H125.284ZM139.635 157.6L137.655 152.34C137.495 151.933 137.331 151.417 137.165 150.79C137.091 151.103 137.011 151.393 136.925 151.66C136.838 151.92 136.758 152.15 136.685 152.35L134.705 157.6H139.635ZM144.065 163H142.255C142.048 163 141.881 162.95 141.755 162.85C141.628 162.743 141.531 162.613 141.465 162.46L140.265 159.28H134.065L132.865 162.46C132.811 162.593 132.718 162.717 132.585 162.83C132.451 162.943 132.285 163 132.085 163H130.275L135.985 148.6H138.355L144.065 163ZM47.33 181.6L45.35 176.34C45.19 175.933 45.0267 175.417 44.86 174.79C44.7867 175.103 44.7067 175.393 44.62 175.66C44.5333 175.92 44.4533 176.15 44.38 176.35L42.4 181.6H47.33ZM51.76 187H49.95C49.7433 187 49.5767 186.95 49.45 186.85C49.3233 186.743 49.2267 186.613 49.16 186.46L47.96 183.28H41.76L40.56 186.46C40.5067 186.593 40.4133 186.717 40.28 186.83C40.1467 186.943 39.98 187 39.78 187H37.97L43.68 172.6H46.05L51.76 187ZM61.2002 176.8L57.1002 187H55.1602L51.0602 176.8H52.8302C52.9968 176.8 53.1335 176.843 53.2402 176.93C53.3535 177.01 53.4268 177.107 53.4602 177.22L55.7202 183.16C55.8135 183.44 55.8968 183.717 55.9702 183.99C56.0435 184.263 56.1068 184.54 56.1602 184.82C56.2135 184.54 56.2768 184.267 56.3502 184C56.4302 183.727 56.5168 183.447 56.6102 183.16L58.9102 177.22C58.9502 177.1 59.0235 177 59.1302 176.92C59.2368 176.84 59.3668 176.8 59.5202 176.8H61.2002ZM69.0664 180.75C69.0664 180.39 69.0131 180.057 68.9064 179.75C68.8064 179.437 68.6564 179.167 68.4564 178.94C68.2564 178.707 68.0064 178.527 67.7064 178.4C67.4131 178.267 67.0731 178.2 66.6864 178.2C65.9064 178.2 65.2931 178.423 64.8464 178.87C64.3997 179.317 64.1164 179.943 63.9964 180.75H69.0664ZM63.9364 182.07C63.9631 182.65 64.0531 183.153 64.2064 183.58C64.3597 184 64.5631 184.35 64.8164 184.63C65.0764 184.91 65.3831 185.12 65.7364 185.26C66.0964 185.393 66.4964 185.46 66.9364 185.46C67.3564 185.46 67.7197 185.413 68.0264 185.32C68.3331 185.22 68.5997 185.113 68.8264 185C69.0531 184.88 69.2464 184.773 69.4064 184.68C69.5664 184.58 69.7131 184.53 69.8464 184.53C70.0197 184.53 70.1531 184.597 70.2464 184.73L70.8564 185.52C70.6031 185.82 70.3164 186.073 69.9964 186.28C69.6764 186.487 69.3364 186.657 68.9764 186.79C68.6164 186.917 68.2464 187.007 67.8664 187.06C67.4864 187.12 67.1164 187.15 66.7564 187.15C66.0497 187.15 65.3931 187.033 64.7864 186.8C64.1864 186.56 63.6631 186.21 63.2164 185.75C62.7764 185.29 62.4297 184.72 62.1764 184.04C61.9297 183.36 61.8064 182.577 61.8064 181.69C61.8064 180.983 61.9164 180.323 62.1364 179.71C62.3631 179.097 62.6831 178.563 63.0964 178.11C63.5164 177.657 64.0231 177.3 64.6164 177.04C65.2164 176.773 65.8931 176.64 66.6464 176.64C67.2731 176.64 67.8531 176.743 68.3864 176.95C68.9197 177.15 69.3797 177.447 69.7664 177.84C70.1531 178.233 70.4531 178.717 70.6664 179.29C70.8864 179.857 70.9964 180.503 70.9964 181.23C70.9964 181.563 70.9597 181.787 70.8864 181.9C70.8131 182.013 70.6797 182.07 70.4864 182.07H63.9364ZM75.0314 178.69C75.3514 178.043 75.7381 177.537 76.1914 177.17C76.6447 176.797 77.1881 176.61 77.8214 176.61C78.0414 176.61 78.2481 176.637 78.4414 176.69C78.6347 176.737 78.8081 176.81 78.9614 176.91L78.8114 178.53C78.7847 178.643 78.7414 178.723 78.6814 178.77C78.6281 178.81 78.5547 178.83 78.4614 178.83C78.3614 178.83 78.2181 178.813 78.0314 178.78C77.8447 178.74 77.6481 178.72 77.4414 178.72C77.1414 178.72 76.8747 178.763 76.6414 178.85C76.4147 178.937 76.2081 179.063 76.0214 179.23C75.8414 179.397 75.6814 179.6 75.5414 179.84C75.4014 180.08 75.2714 180.353 75.1514 180.66V187H73.0014V176.8H74.2514C74.4781 176.8 74.6347 176.843 74.7214 176.93C74.8081 177.01 74.8681 177.153 74.9014 177.36L75.0314 178.69ZM85.678 182.54C84.9113 182.567 84.2646 182.63 83.738 182.73C83.2113 182.823 82.7846 182.947 82.458 183.1C82.1313 183.247 81.8946 183.423 81.748 183.63C81.608 183.837 81.538 184.063 81.538 184.31C81.538 184.55 81.5746 184.757 81.648 184.93C81.728 185.097 81.8346 185.237 81.968 185.35C82.108 185.457 82.268 185.537 82.448 185.59C82.6346 185.637 82.838 185.66 83.058 185.66C83.618 185.66 84.098 185.557 84.498 185.35C84.9046 185.137 85.298 184.83 85.678 184.43V182.54ZM79.978 178.22C81.1313 177.147 82.5046 176.61 84.098 176.61C84.6846 176.61 85.2046 176.707 85.658 176.9C86.118 177.087 86.5013 177.353 86.808 177.7C87.1213 178.047 87.358 178.46 87.518 178.94C87.6846 179.413 87.768 179.94 87.768 180.52V187H86.808C86.6013 187 86.4446 186.97 86.338 186.91C86.2313 186.843 86.1413 186.713 86.068 186.52L85.858 185.69C85.598 185.923 85.3413 186.133 85.088 186.32C84.8346 186.5 84.5713 186.653 84.298 186.78C84.0313 186.907 83.7413 187 83.428 187.06C83.1213 187.127 82.7813 187.16 82.408 187.16C81.9946 187.16 81.608 187.103 81.248 186.99C80.8946 186.877 80.588 186.707 80.328 186.48C80.068 186.247 79.8613 185.96 79.708 185.62C79.5613 185.28 79.488 184.88 79.488 184.42C79.488 184.027 79.5913 183.643 79.798 183.27C80.0113 182.897 80.358 182.563 80.838 182.27C81.3246 181.97 81.9613 181.723 82.748 181.53C83.5413 181.337 84.518 181.227 85.678 181.2V180.52C85.678 179.787 85.5213 179.24 85.208 178.88C84.8946 178.52 84.4346 178.34 83.828 178.34C83.4146 178.34 83.068 178.393 82.788 178.5C82.508 178.6 82.2646 178.71 82.058 178.83C81.8513 178.95 81.668 179.063 81.508 179.17C81.348 179.27 81.178 179.32 80.998 179.32C80.8513 179.32 80.7246 179.283 80.618 179.21C80.518 179.13 80.4346 179.033 80.368 178.92L79.978 178.22ZM93.9266 181.81C94.5932 181.81 95.0932 181.64 95.4266 181.3C95.7599 180.96 95.9266 180.517 95.9266 179.97C95.9266 179.41 95.7599 178.967 95.4266 178.64C95.0932 178.313 94.5932 178.15 93.9266 178.15C93.2666 178.15 92.7666 178.313 92.4266 178.64C92.0932 178.967 91.9266 179.41 91.9266 179.97C91.9266 180.237 91.9699 180.483 92.0566 180.71C92.1432 180.937 92.2699 181.133 92.4366 181.3C92.6032 181.46 92.8099 181.587 93.0566 181.68C93.3099 181.767 93.5999 181.81 93.9266 181.81ZM96.9166 187.5C96.9166 187.273 96.8499 187.093 96.7166 186.96C96.5899 186.82 96.4166 186.713 96.1966 186.64C95.9766 186.56 95.7199 186.503 95.4266 186.47C95.1332 186.43 94.8199 186.403 94.4866 186.39C94.1599 186.37 93.8232 186.353 93.4766 186.34C93.1366 186.32 92.8066 186.287 92.4866 186.24C92.1666 186.407 91.9032 186.607 91.6966 186.84C91.4966 187.073 91.3966 187.343 91.3966 187.65C91.3966 187.85 91.4466 188.037 91.5466 188.21C91.6532 188.383 91.8132 188.533 92.0266 188.66C92.2466 188.787 92.5232 188.887 92.8566 188.96C93.1966 189.033 93.6032 189.07 94.0766 189.07C95.0232 189.07 95.7332 188.923 96.2066 188.63C96.6799 188.337 96.9166 187.96 96.9166 187.5ZM99.0766 177.17V177.97C99.0766 178.237 98.9166 178.4 98.5966 178.46L97.5766 178.63C97.7499 179.017 97.8366 179.447 97.8366 179.92C97.8366 180.42 97.7366 180.873 97.5366 181.28C97.3432 181.687 97.0732 182.033 96.7266 182.32C96.3799 182.607 95.9666 182.827 95.4866 182.98C95.0066 183.133 94.4866 183.21 93.9266 183.21C93.7132 183.21 93.5032 183.2 93.2966 183.18C93.0966 183.153 92.8999 183.12 92.7066 183.08C92.5132 183.193 92.3699 183.313 92.2766 183.44C92.1832 183.567 92.1366 183.697 92.1366 183.83C92.1366 184.05 92.2332 184.213 92.4266 184.32C92.6199 184.427 92.8732 184.503 93.1866 184.55C93.5066 184.597 93.8699 184.627 94.2766 184.64C94.6832 184.653 95.0966 184.677 95.5166 184.71C95.9366 184.743 96.3499 184.8 96.7566 184.88C97.1632 184.953 97.5232 185.08 97.8366 185.26C98.1566 185.433 98.4132 185.67 98.6066 185.97C98.7999 186.27 98.8966 186.66 98.8966 187.14C98.8966 187.58 98.7866 188.01 98.5666 188.43C98.3466 188.85 98.0266 189.223 97.6066 189.55C97.1932 189.877 96.6866 190.137 96.0866 190.33C95.4866 190.53 94.8032 190.63 94.0366 190.63C93.2766 190.63 92.6132 190.557 92.0466 190.41C91.4866 190.263 91.0166 190.063 90.6366 189.81C90.2632 189.563 89.9832 189.277 89.7966 188.95C89.6166 188.623 89.5266 188.283 89.5266 187.93C89.5266 187.45 89.6766 187.04 89.9766 186.7C90.2832 186.36 90.6966 186.093 91.2166 185.9C90.9366 185.767 90.7099 185.583 90.5366 185.35C90.3699 185.117 90.2866 184.81 90.2866 184.43C90.2866 184.13 90.3966 183.817 90.6166 183.49C90.8366 183.163 91.1666 182.887 91.6066 182.66C91.0999 182.38 90.6999 182.01 90.4066 181.55C90.1132 181.083 89.9666 180.54 89.9666 179.92C89.9666 179.413 90.0632 178.957 90.2566 178.55C90.4566 178.143 90.7332 177.797 91.0866 177.51C91.4399 177.223 91.8566 177.003 92.3366 176.85C92.8232 176.697 93.3532 176.62 93.9266 176.62C94.8066 176.62 95.5732 176.803 96.2266 177.17H99.0766ZM107.289 180.75C107.289 180.39 107.236 180.057 107.129 179.75C107.029 179.437 106.879 179.167 106.679 178.94C106.479 178.707 106.229 178.527 105.929 178.4C105.636 178.267 105.296 178.2 104.909 178.2C104.129 178.2 103.516 178.423 103.069 178.87C102.622 179.317 102.339 179.943 102.219 180.75H107.289ZM102.159 182.07C102.186 182.65 102.276 183.153 102.429 183.58C102.582 184 102.786 184.35 103.039 184.63C103.299 184.91 103.606 185.12 103.959 185.26C104.319 185.393 104.719 185.46 105.159 185.46C105.579 185.46 105.942 185.413 106.249 185.32C106.556 185.22 106.822 185.113 107.049 185C107.276 184.88 107.469 184.773 107.629 184.68C107.789 184.58 107.936 184.53 108.069 184.53C108.242 184.53 108.376 184.597 108.469 184.73L109.079 185.52C108.826 185.82 108.539 186.073 108.219 186.28C107.899 186.487 107.559 186.657 107.199 186.79C106.839 186.917 106.469 187.007 106.089 187.06C105.709 187.12 105.339 187.15 104.979 187.15C104.272 187.15 103.616 187.033 103.009 186.8C102.409 186.56 101.886 186.21 101.439 185.75C100.999 185.29 100.652 184.72 100.399 184.04C100.152 183.36 100.029 182.577 100.029 181.69C100.029 180.983 100.139 180.323 100.359 179.71C100.586 179.097 100.906 178.563 101.319 178.11C101.739 177.657 102.246 177.3 102.839 177.04C103.439 176.773 104.116 176.64 104.869 176.64C105.496 176.64 106.076 176.743 106.609 176.95C107.142 177.15 107.602 177.447 107.989 177.84C108.376 178.233 108.676 178.717 108.889 179.29C109.109 179.857 109.219 180.503 109.219 181.23C109.219 181.563 109.182 181.787 109.109 181.9C109.036 182.013 108.902 182.07 108.709 182.07H102.159ZM124.135 175.06C124.061 175.18 123.985 175.27 123.905 175.33C123.825 175.383 123.725 175.41 123.605 175.41C123.478 175.41 123.335 175.357 123.175 175.25C123.021 175.143 122.828 175.027 122.595 174.9C122.368 174.767 122.098 174.647 121.785 174.54C121.471 174.427 121.098 174.37 120.665 174.37C120.265 174.37 119.911 174.42 119.605 174.52C119.305 174.62 119.051 174.76 118.845 174.94C118.638 175.12 118.481 175.333 118.375 175.58C118.275 175.82 118.225 176.083 118.225 176.37C118.225 176.737 118.321 177.043 118.515 177.29C118.708 177.53 118.961 177.737 119.275 177.91C119.595 178.083 119.958 178.237 120.365 178.37C120.771 178.497 121.185 178.633 121.605 178.78C122.031 178.927 122.448 179.093 122.855 179.28C123.261 179.467 123.621 179.703 123.935 179.99C124.255 180.277 124.511 180.627 124.705 181.04C124.898 181.453 124.995 181.957 124.995 182.55C124.995 183.19 124.885 183.79 124.665 184.35C124.445 184.91 124.125 185.4 123.705 185.82C123.291 186.233 122.778 186.56 122.165 186.8C121.558 187.04 120.865 187.16 120.085 187.16C119.625 187.16 119.175 187.113 118.735 187.02C118.301 186.933 117.885 186.81 117.485 186.65C117.091 186.483 116.721 186.283 116.375 186.05C116.028 185.817 115.718 185.557 115.445 185.27L116.125 184.15C116.185 184.057 116.261 183.983 116.355 183.93C116.448 183.877 116.551 183.85 116.665 183.85C116.818 183.85 116.988 183.923 117.175 184.07C117.361 184.21 117.585 184.367 117.845 184.54C118.111 184.707 118.431 184.863 118.805 185.01C119.178 185.15 119.625 185.22 120.145 185.22C120.991 185.22 121.645 185.013 122.105 184.6C122.571 184.187 122.805 183.617 122.805 182.89C122.805 182.483 122.708 182.153 122.515 181.9C122.321 181.64 122.065 181.423 121.745 181.25C121.431 181.077 121.071 180.93 120.665 180.81C120.258 180.69 119.845 180.563 119.425 180.43C119.005 180.29 118.591 180.13 118.185 179.95C117.778 179.763 117.415 179.523 117.095 179.23C116.781 178.93 116.528 178.563 116.335 178.13C116.141 177.69 116.045 177.143 116.045 176.49C116.045 175.97 116.145 175.467 116.345 174.98C116.551 174.493 116.848 174.063 117.235 173.69C117.628 173.31 118.111 173.007 118.685 172.78C119.258 172.553 119.911 172.44 120.645 172.44C121.471 172.44 122.228 172.57 122.915 172.83C123.608 173.09 124.205 173.46 124.705 173.94L124.135 175.06ZM132.436 182.54C131.669 182.567 131.022 182.63 130.496 182.73C129.969 182.823 129.542 182.947 129.216 183.1C128.889 183.247 128.652 183.423 128.506 183.63C128.366 183.837 128.296 184.063 128.296 184.31C128.296 184.55 128.332 184.757 128.406 184.93C128.486 185.097 128.592 185.237 128.726 185.35C128.866 185.457 129.026 185.537 129.206 185.59C129.392 185.637 129.596 185.66 129.816 185.66C130.376 185.66 130.856 185.557 131.256 185.35C131.662 185.137 132.056 184.83 132.436 184.43V182.54ZM126.736 178.22C127.889 177.147 129.262 176.61 130.856 176.61C131.442 176.61 131.962 176.707 132.416 176.9C132.876 177.087 133.259 177.353 133.566 177.7C133.879 178.047 134.116 178.46 134.276 178.94C134.442 179.413 134.526 179.94 134.526 180.52V187H133.566C133.359 187 133.202 186.97 133.096 186.91C132.989 186.843 132.899 186.713 132.826 186.52L132.616 185.69C132.356 185.923 132.099 186.133 131.846 186.32C131.592 186.5 131.329 186.653 131.056 186.78C130.789 186.907 130.499 187 130.186 187.06C129.879 187.127 129.539 187.16 129.166 187.16C128.752 187.16 128.366 187.103 128.006 186.99C127.652 186.877 127.346 186.707 127.086 186.48C126.826 186.247 126.619 185.96 126.466 185.62C126.319 185.28 126.246 184.88 126.246 184.42C126.246 184.027 126.349 183.643 126.556 183.27C126.769 182.897 127.116 182.563 127.596 182.27C128.082 181.97 128.719 181.723 129.506 181.53C130.299 181.337 131.276 181.227 132.436 181.2V180.52C132.436 179.787 132.279 179.24 131.966 178.88C131.652 178.52 131.192 178.34 130.586 178.34C130.172 178.34 129.826 178.393 129.546 178.5C129.266 178.6 129.022 178.71 128.816 178.83C128.609 178.95 128.426 179.063 128.266 179.17C128.106 179.27 127.936 179.32 127.756 179.32C127.609 179.32 127.482 179.283 127.376 179.21C127.276 179.13 127.192 179.033 127.126 178.92L126.736 178.22ZM139.234 172.2V187H137.084V172.2H139.234ZM147.338 182.54C146.571 182.567 145.925 182.63 145.398 182.73C144.871 182.823 144.445 182.947 144.118 183.1C143.791 183.247 143.555 183.423 143.408 183.63C143.268 183.837 143.198 184.063 143.198 184.31C143.198 184.55 143.235 184.757 143.308 184.93C143.388 185.097 143.495 185.237 143.628 185.35C143.768 185.457 143.928 185.537 144.108 185.59C144.295 185.637 144.498 185.66 144.718 185.66C145.278 185.66 145.758 185.557 146.158 185.35C146.565 185.137 146.958 184.83 147.338 184.43V182.54ZM141.638 178.22C142.791 177.147 144.165 176.61 145.758 176.61C146.345 176.61 146.865 176.707 147.318 176.9C147.778 177.087 148.161 177.353 148.468 177.7C148.781 178.047 149.018 178.46 149.178 178.94C149.345 179.413 149.428 179.94 149.428 180.52V187H148.468C148.261 187 148.105 186.97 147.998 186.91C147.891 186.843 147.801 186.713 147.728 186.52L147.518 185.69C147.258 185.923 147.001 186.133 146.748 186.32C146.495 186.5 146.231 186.653 145.958 186.78C145.691 186.907 145.401 187 145.088 187.06C144.781 187.127 144.441 187.16 144.068 187.16C143.655 187.16 143.268 187.103 142.908 186.99C142.555 186.877 142.248 186.707 141.988 186.48C141.728 186.247 141.521 185.96 141.368 185.62C141.221 185.28 141.148 184.88 141.148 184.42C141.148 184.027 141.251 183.643 141.458 183.27C141.671 182.897 142.018 182.563 142.498 182.27C142.985 181.97 143.621 181.723 144.408 181.53C145.201 181.337 146.178 181.227 147.338 181.2V180.52C147.338 179.787 147.181 179.24 146.868 178.88C146.555 178.52 146.095 178.34 145.488 178.34C145.075 178.34 144.728 178.393 144.448 178.5C144.168 178.6 143.925 178.71 143.718 178.83C143.511 178.95 143.328 179.063 143.168 179.17C143.008 179.27 142.838 179.32 142.658 179.32C142.511 179.32 142.385 179.283 142.278 179.21C142.178 179.13 142.095 179.033 142.028 178.92L141.638 178.22ZM153.977 178.69C154.297 178.043 154.683 177.537 155.137 177.17C155.59 176.797 156.133 176.61 156.767 176.61C156.987 176.61 157.193 176.637 157.387 176.69C157.58 176.737 157.753 176.81 157.907 176.91L157.757 178.53C157.73 178.643 157.687 178.723 157.627 178.77C157.573 178.81 157.5 178.83 157.407 178.83C157.307 178.83 157.163 178.813 156.977 178.78C156.79 178.74 156.593 178.72 156.387 178.72C156.087 178.72 155.82 178.763 155.587 178.85C155.36 178.937 155.153 179.063 154.967 179.23C154.787 179.397 154.627 179.6 154.487 179.84C154.347 180.08 154.217 180.353 154.097 180.66V187H151.947V176.8H153.197C153.423 176.8 153.58 176.843 153.667 176.93C153.753 177.01 153.813 177.153 153.847 177.36L153.977 178.69ZM168.38 176.8L162.76 189.9C162.686 190.053 162.596 190.173 162.49 190.26C162.39 190.347 162.233 190.39 162.02 190.39H160.43L162.31 186.31L158.15 176.8H160.02C160.2 176.8 160.336 176.843 160.43 176.93C160.53 177.01 160.603 177.107 160.65 177.22L163.08 183.01C163.14 183.177 163.193 183.343 163.24 183.51C163.293 183.67 163.343 183.837 163.39 184.01C163.443 183.837 163.496 183.667 163.55 183.5C163.603 183.333 163.663 183.167 163.73 183L166.06 177.22C166.106 177.1 166.183 177 166.29 176.92C166.403 176.84 166.526 176.8 166.66 176.8H168.38Z" fill="white"/>
<circle cx="12" cy="298" r="12" fill="white"/>
<path d="M10.357 295.9C11.017 295.762 11.614 295.693 12.148 295.693C12.82 295.693 13.414 295.795 13.93 295.999C14.446 296.197 14.878 296.473 15.226 296.827C15.58 297.175 15.844 297.589 16.018 298.069C16.198 298.543 16.288 299.059 16.288 299.617C16.288 300.301 16.168 300.922 15.928 301.48C15.688 302.038 15.358 302.515 14.938 302.911C14.518 303.307 14.02 303.613 13.444 303.829C12.874 304.039 12.259 304.144 11.599 304.144C11.209 304.144 10.837 304.105 10.483 304.027C10.135 303.949 9.808 303.847 9.502 303.721C9.196 303.589 8.911 303.439 8.647 303.271C8.389 303.103 8.158 302.926 7.954 302.74L8.494 301.984C8.608 301.816 8.761 301.732 8.953 301.732C9.079 301.732 9.217 301.78 9.367 301.876C9.523 301.966 9.706 302.068 9.916 302.182C10.126 302.296 10.375 302.401 10.663 302.497C10.951 302.587 11.293 302.632 11.689 302.632C12.127 302.632 12.52 302.563 12.868 302.425C13.222 302.281 13.519 302.08 13.759 301.822C14.005 301.564 14.191 301.255 14.317 300.895C14.449 300.535 14.515 300.136 14.515 299.698C14.515 299.308 14.458 298.957 14.344 298.645C14.23 298.333 14.059 298.066 13.831 297.844C13.603 297.622 13.318 297.454 12.976 297.34C12.634 297.22 12.235 297.16 11.779 297.16C11.143 297.16 10.465 297.274 9.745 297.502L8.638 297.178L9.691 291.076H15.883V291.841C15.883 292.093 15.802 292.3 15.64 292.462C15.484 292.618 15.22 292.696 14.848 292.696H10.915L10.357 295.9Z" fill="#062D52"/>
<path d="M43.89 298.5C44.4233 298.5 44.89 298.437 45.29 298.31C45.69 298.177 46.0233 297.993 46.29 297.76C46.5567 297.527 46.7567 297.25 46.89 296.93C47.0233 296.603 47.09 296.243 47.09 295.85C47.09 295.063 46.83 294.463 46.31 294.05C45.79 293.637 45.0033 293.43 43.95 293.43H42.05V298.5H43.89ZM50.67 306H48.58C48.1667 306 47.8667 305.84 47.68 305.52L44.32 300.67C44.2067 300.503 44.0833 300.383 43.95 300.31C43.8167 300.237 43.6167 300.2 43.35 300.2H42.05V306H39.71V291.6H43.95C44.8967 291.6 45.71 291.697 46.39 291.89C47.0767 292.083 47.64 292.36 48.08 292.72C48.52 293.073 48.8433 293.5 49.05 294C49.2633 294.5 49.37 295.057 49.37 295.67C49.37 296.17 49.2933 296.637 49.14 297.07C48.9933 297.503 48.7767 297.897 48.49 298.25C48.21 298.603 47.8633 298.91 47.45 299.17C47.0367 299.43 46.5667 299.633 46.04 299.78C46.3267 299.953 46.5733 300.197 46.78 300.51L50.67 306ZM57.9391 297.65C57.8857 297.743 57.8257 297.81 57.7591 297.85C57.6924 297.89 57.6091 297.91 57.5091 297.91C57.3957 297.91 57.2724 297.877 57.1391 297.81C57.0057 297.737 56.8491 297.657 56.6691 297.57C56.4891 297.483 56.2757 297.407 56.0291 297.34C55.7891 297.267 55.5057 297.23 55.1791 297.23C54.9124 297.23 54.6691 297.263 54.4491 297.33C54.2357 297.39 54.0524 297.48 53.8991 297.6C53.7524 297.713 53.6391 297.85 53.5591 298.01C53.4791 298.163 53.4391 298.33 53.4391 298.51C53.4391 298.75 53.5124 298.95 53.6591 299.11C53.8057 299.27 53.9991 299.41 54.2391 299.53C54.4791 299.643 54.7524 299.747 55.0591 299.84C55.3657 299.933 55.6791 300.033 55.9991 300.14C56.3191 300.247 56.6324 300.37 56.9391 300.51C57.2457 300.65 57.5191 300.823 57.7591 301.03C57.9991 301.23 58.1924 301.477 58.3391 301.77C58.4857 302.057 58.5591 302.407 58.5591 302.82C58.5591 303.3 58.4724 303.743 58.2991 304.15C58.1257 304.557 57.8724 304.91 57.5391 305.21C57.2057 305.51 56.7891 305.743 56.2891 305.91C55.7957 306.077 55.2291 306.16 54.5891 306.16C54.2357 306.16 53.8924 306.127 53.5591 306.06C53.2324 306 52.9191 305.917 52.6191 305.81C52.3257 305.697 52.0491 305.563 51.7891 305.41C51.5357 305.257 51.3091 305.09 51.1091 304.91L51.6091 304.09C51.6691 303.99 51.7424 303.913 51.8291 303.86C51.9224 303.8 52.0357 303.77 52.1691 303.77C52.3091 303.77 52.4457 303.817 52.5791 303.91C52.7191 303.997 52.8791 304.093 53.0591 304.2C53.2457 304.307 53.4691 304.407 53.7291 304.5C53.9891 304.587 54.3124 304.63 54.6991 304.63C55.0191 304.63 55.2957 304.593 55.5291 304.52C55.7624 304.44 55.9557 304.333 56.1091 304.2C56.2624 304.067 56.3757 303.917 56.4491 303.75C56.5224 303.577 56.5591 303.393 56.5591 303.2C56.5591 302.94 56.4857 302.727 56.3391 302.56C56.1924 302.393 55.9957 302.25 55.7491 302.13C55.5091 302.01 55.2324 301.903 54.9191 301.81C54.6124 301.717 54.2991 301.617 53.9791 301.51C53.6591 301.403 53.3424 301.28 53.0291 301.14C52.7224 301 52.4457 300.823 52.1991 300.61C51.9591 300.39 51.7657 300.127 51.6191 299.82C51.4724 299.507 51.3991 299.127 51.3991 298.68C51.3991 298.273 51.4791 297.887 51.6391 297.52C51.8057 297.153 52.0457 296.83 52.3591 296.55C52.6791 296.27 53.0691 296.05 53.5291 295.89C53.9957 295.723 54.5324 295.64 55.1391 295.64C55.8257 295.64 56.4491 295.75 57.0091 295.97C57.5691 296.19 58.0391 296.49 58.4191 296.87L57.9391 297.65ZM74.52 304.37V306H66.67V304.37H69.67V295.35C69.67 295.03 69.68 294.703 69.7 294.37L67.39 296.32C67.29 296.4 67.1867 296.453 67.08 296.48C66.98 296.5 66.8833 296.5 66.79 296.48C66.7033 296.46 66.6233 296.43 66.55 296.39C66.4833 296.343 66.43 296.293 66.39 296.24L65.72 295.3L70.06 291.57H71.81V304.37H74.52ZM86.1216 304.37V306H78.2716V304.37H81.2716V295.35C81.2716 295.03 81.2816 294.703 81.3016 294.37L78.9916 296.32C78.8916 296.4 78.7882 296.453 78.6816 296.48C78.5816 296.5 78.4849 296.5 78.3916 296.48C78.3049 296.46 78.2249 296.43 78.1516 296.39C78.0849 296.343 78.0316 296.293 77.9916 296.24L77.3216 295.3L81.6616 291.57H83.4116V304.37H86.1216ZM102.464 304.04V306H94.1436V291.6H96.4836V304.04H102.464ZM108.956 298.94C109.476 298.94 109.932 298.873 110.326 298.74C110.726 298.607 111.056 298.42 111.316 298.18C111.582 297.933 111.782 297.637 111.916 297.29C112.049 296.943 112.116 296.557 112.116 296.13C112.116 295.71 112.049 295.333 111.916 295C111.789 294.667 111.596 294.383 111.336 294.15C111.076 293.917 110.746 293.74 110.346 293.62C109.952 293.493 109.489 293.43 108.956 293.43H106.816V298.94H108.956ZM108.956 291.6C109.896 291.6 110.709 291.71 111.396 291.93C112.089 292.15 112.659 292.46 113.106 292.86C113.559 293.253 113.896 293.73 114.116 294.29C114.336 294.843 114.446 295.457 114.446 296.13C114.446 296.817 114.329 297.447 114.096 298.02C113.862 298.587 113.516 299.077 113.056 299.49C112.596 299.897 112.022 300.217 111.336 300.45C110.656 300.677 109.862 300.79 108.956 300.79H106.816V306H104.476V291.6H108.956ZM123.307 300.6L121.327 295.34C121.167 294.933 121.003 294.417 120.837 293.79C120.763 294.103 120.683 294.393 120.597 294.66C120.51 294.92 120.43 295.15 120.357 295.35L118.377 300.6H123.307ZM127.737 306H125.927C125.72 306 125.553 305.95 125.427 305.85C125.3 305.743 125.203 305.613 125.137 305.46L123.937 302.28H117.737L116.537 305.46C116.483 305.593 116.39 305.717 116.257 305.83C116.123 305.943 115.957 306 115.757 306H113.947L119.657 291.6H122.027L127.737 306ZM51.63 315.6V330H49.29V323.59H42.06V330H39.71V315.6H42.06V321.9H49.29V315.6H51.63ZM56.7453 319.8V330H54.5953V319.8H56.7453ZM57.1053 316.72C57.1053 316.913 57.0653 317.097 56.9853 317.27C56.912 317.443 56.8086 317.597 56.6753 317.73C56.542 317.857 56.3853 317.96 56.2053 318.04C56.032 318.113 55.8453 318.15 55.6453 318.15C55.452 318.15 55.2686 318.113 55.0953 318.04C54.9286 317.96 54.782 317.857 54.6553 317.73C54.5286 317.597 54.4253 317.443 54.3453 317.27C54.272 317.097 54.2353 316.913 54.2353 316.72C54.2353 316.52 54.272 316.333 54.3453 316.16C54.4253 315.987 54.5286 315.837 54.6553 315.71C54.782 315.577 54.9286 315.473 55.0953 315.4C55.2686 315.32 55.452 315.28 55.6453 315.28C55.8453 315.28 56.032 315.32 56.2053 315.4C56.3853 315.473 56.542 315.577 56.6753 315.71C56.8086 315.837 56.912 315.987 56.9853 316.16C57.0653 316.333 57.1053 316.52 57.1053 316.72ZM63.0867 324.81C63.7534 324.81 64.2534 324.64 64.5867 324.3C64.9201 323.96 65.0867 323.517 65.0867 322.97C65.0867 322.41 64.9201 321.967 64.5867 321.64C64.2534 321.313 63.7534 321.15 63.0867 321.15C62.4267 321.15 61.9267 321.313 61.5867 321.64C61.2534 321.967 61.0867 322.41 61.0867 322.97C61.0867 323.237 61.1301 323.483 61.2167 323.71C61.3034 323.937 61.4301 324.133 61.5967 324.3C61.7634 324.46 61.9701 324.587 62.2167 324.68C62.4701 324.767 62.7601 324.81 63.0867 324.81ZM66.0767 330.5C66.0767 330.273 66.0101 330.093 65.8767 329.96C65.7501 329.82 65.5767 329.713 65.3567 329.64C65.1367 329.56 64.8801 329.503 64.5867 329.47C64.2934 329.43 63.9801 329.403 63.6467 329.39C63.3201 329.37 62.9834 329.353 62.6367 329.34C62.2967 329.32 61.9667 329.287 61.6467 329.24C61.3267 329.407 61.0634 329.607 60.8567 329.84C60.6567 330.073 60.5567 330.343 60.5567 330.65C60.5567 330.85 60.6067 331.037 60.7067 331.21C60.8134 331.383 60.9734 331.533 61.1867 331.66C61.4067 331.787 61.6834 331.887 62.0167 331.96C62.3567 332.033 62.7634 332.07 63.2367 332.07C64.1834 332.07 64.8934 331.923 65.3667 331.63C65.8401 331.337 66.0767 330.96 66.0767 330.5ZM68.2367 320.17V320.97C68.2367 321.237 68.0767 321.4 67.7567 321.46L66.7367 321.63C66.9101 322.017 66.9967 322.447 66.9967 322.92C66.9967 323.42 66.8967 323.873 66.6967 324.28C66.5034 324.687 66.2334 325.033 65.8867 325.32C65.5401 325.607 65.1267 325.827 64.6467 325.98C64.1667 326.133 63.6467 326.21 63.0867 326.21C62.8734 326.21 62.6634 326.2 62.4567 326.18C62.2567 326.153 62.0601 326.12 61.8667 326.08C61.6734 326.193 61.5301 326.313 61.4367 326.44C61.3434 326.567 61.2967 326.697 61.2967 326.83C61.2967 327.05 61.3934 327.213 61.5867 327.32C61.7801 327.427 62.0334 327.503 62.3467 327.55C62.6667 327.597 63.0301 327.627 63.4367 327.64C63.8434 327.653 64.2567 327.677 64.6767 327.71C65.0967 327.743 65.5101 327.8 65.9167 327.88C66.3234 327.953 66.6834 328.08 66.9967 328.26C67.3167 328.433 67.5734 328.67 67.7667 328.97C67.9601 329.27 68.0567 329.66 68.0567 330.14C68.0567 330.58 67.9467 331.01 67.7267 331.43C67.5067 331.85 67.1867 332.223 66.7667 332.55C66.3534 332.877 65.8467 333.137 65.2467 333.33C64.6467 333.53 63.9634 333.63 63.1967 333.63C62.4367 333.63 61.7734 333.557 61.2067 333.41C60.6467 333.263 60.1767 333.063 59.7967 332.81C59.4234 332.563 59.1434 332.277 58.9567 331.95C58.7767 331.623 58.6867 331.283 58.6867 330.93C58.6867 330.45 58.8367 330.04 59.1367 329.7C59.4434 329.36 59.8567 329.093 60.3767 328.9C60.0967 328.767 59.8701 328.583 59.6967 328.35C59.5301 328.117 59.4467 327.81 59.4467 327.43C59.4467 327.13 59.5567 326.817 59.7767 326.49C59.9967 326.163 60.3267 325.887 60.7667 325.66C60.2601 325.38 59.8601 325.01 59.5667 324.55C59.2734 324.083 59.1267 323.54 59.1267 322.92C59.1267 322.413 59.2234 321.957 59.4167 321.55C59.6167 321.143 59.8934 320.797 60.2467 320.51C60.6001 320.223 61.0167 320.003 61.4967 319.85C61.9834 319.697 62.5134 319.62 63.0867 319.62C63.9667 319.62 64.7334 319.803 65.3867 320.17H68.2367ZM72.085 321.01C72.505 320.597 72.965 320.267 73.465 320.02C73.965 319.767 74.5483 319.64 75.215 319.64C75.775 319.64 76.265 319.733 76.685 319.92C77.1117 320.107 77.4683 320.37 77.755 320.71C78.0483 321.05 78.2683 321.46 78.415 321.94C78.5617 322.413 78.635 322.937 78.635 323.51V330H76.495V323.51C76.495 322.823 76.335 322.29 76.015 321.91C75.7017 321.53 75.2217 321.34 74.575 321.34C74.095 321.34 73.6483 321.45 73.235 321.67C72.8283 321.89 72.445 322.19 72.085 322.57V330H69.935V315.2H72.085V321.01ZM87.8359 323.75C87.8359 323.39 87.7826 323.057 87.6759 322.75C87.5759 322.437 87.4259 322.167 87.2259 321.94C87.0259 321.707 86.7759 321.527 86.4759 321.4C86.1826 321.267 85.8426 321.2 85.4559 321.2C84.6759 321.2 84.0626 321.423 83.6159 321.87C83.1693 322.317 82.8859 322.943 82.7659 323.75H87.8359ZM82.7059 325.07C82.7326 325.65 82.8226 326.153 82.9759 326.58C83.1293 327 83.3326 327.35 83.5859 327.63C83.8459 327.91 84.1526 328.12 84.5059 328.26C84.8659 328.393 85.2659 328.46 85.7059 328.46C86.1259 328.46 86.4893 328.413 86.7959 328.32C87.1026 328.22 87.3693 328.113 87.5959 328C87.8226 327.88 88.0159 327.773 88.1759 327.68C88.3359 327.58 88.4826 327.53 88.6159 327.53C88.7893 327.53 88.9226 327.597 89.0159 327.73L89.6259 328.52C89.3726 328.82 89.0859 329.073 88.7659 329.28C88.4459 329.487 88.1059 329.657 87.7459 329.79C87.3859 329.917 87.0159 330.007 86.6359 330.06C86.2559 330.12 85.8859 330.15 85.5259 330.15C84.8193 330.15 84.1626 330.033 83.5559 329.8C82.9559 329.56 82.4326 329.21 81.9859 328.75C81.5459 328.29 81.1993 327.72 80.9459 327.04C80.6993 326.36 80.5759 325.577 80.5759 324.69C80.5759 323.983 80.6859 323.323 80.9059 322.71C81.1326 322.097 81.4526 321.563 81.8659 321.11C82.2859 320.657 82.7926 320.3 83.3859 320.04C83.9859 319.773 84.6626 319.64 85.4159 319.64C86.0426 319.64 86.6226 319.743 87.1559 319.95C87.6893 320.15 88.1493 320.447 88.5359 320.84C88.9226 321.233 89.2226 321.717 89.4359 322.29C89.6559 322.857 89.7659 323.503 89.7659 324.23C89.7659 324.563 89.7293 324.787 89.6559 324.9C89.5826 325.013 89.4493 325.07 89.2559 325.07H82.7059ZM97.8609 321.65C97.8076 321.743 97.7476 321.81 97.6809 321.85C97.6143 321.89 97.5309 321.91 97.4309 321.91C97.3176 321.91 97.1943 321.877 97.0609 321.81C96.9276 321.737 96.7709 321.657 96.5909 321.57C96.4109 321.483 96.1976 321.407 95.9509 321.34C95.7109 321.267 95.4276 321.23 95.1009 321.23C94.8343 321.23 94.5909 321.263 94.3709 321.33C94.1576 321.39 93.9743 321.48 93.8209 321.6C93.6743 321.713 93.5609 321.85 93.4809 322.01C93.4009 322.163 93.3609 322.33 93.3609 322.51C93.3609 322.75 93.4343 322.95 93.5809 323.11C93.7276 323.27 93.9209 323.41 94.1609 323.53C94.4009 323.643 94.6743 323.747 94.9809 323.84C95.2876 323.933 95.6009 324.033 95.9209 324.14C96.2409 324.247 96.5543 324.37 96.8609 324.51C97.1676 324.65 97.4409 324.823 97.6809 325.03C97.9209 325.23 98.1143 325.477 98.2609 325.77C98.4076 326.057 98.4809 326.407 98.4809 326.82C98.4809 327.3 98.3943 327.743 98.2209 328.15C98.0476 328.557 97.7943 328.91 97.4609 329.21C97.1276 329.51 96.7109 329.743 96.2109 329.91C95.7176 330.077 95.1509 330.16 94.5109 330.16C94.1576 330.16 93.8143 330.127 93.4809 330.06C93.1543 330 92.8409 329.917 92.5409 329.81C92.2476 329.697 91.9709 329.563 91.7109 329.41C91.4576 329.257 91.2309 329.09 91.0309 328.91L91.5309 328.09C91.5909 327.99 91.6643 327.913 91.7509 327.86C91.8443 327.8 91.9576 327.77 92.0909 327.77C92.2309 327.77 92.3676 327.817 92.5009 327.91C92.6409 327.997 92.8009 328.093 92.9809 328.2C93.1676 328.307 93.3909 328.407 93.6509 328.5C93.9109 328.587 94.2343 328.63 94.6209 328.63C94.9409 328.63 95.2176 328.593 95.4509 328.52C95.6843 328.44 95.8776 328.333 96.0309 328.2C96.1843 328.067 96.2976 327.917 96.3709 327.75C96.4443 327.577 96.4809 327.393 96.4809 327.2C96.4809 326.94 96.4076 326.727 96.2609 326.56C96.1143 326.393 95.9176 326.25 95.6709 326.13C95.4309 326.01 95.1543 325.903 94.8409 325.81C94.5343 325.717 94.2209 325.617 93.9009 325.51C93.5809 325.403 93.2643 325.28 92.9509 325.14C92.6443 325 92.3676 324.823 92.1209 324.61C91.8809 324.39 91.6876 324.127 91.5409 323.82C91.3943 323.507 91.3209 323.127 91.3209 322.68C91.3209 322.273 91.4009 321.887 91.5609 321.52C91.7276 321.153 91.9676 320.83 92.2809 320.55C92.6009 320.27 92.9909 320.05 93.4509 319.89C93.9176 319.723 94.4543 319.64 95.0609 319.64C95.7476 319.64 96.3709 319.75 96.9309 319.97C97.4909 320.19 97.9609 320.49 98.3409 320.87L97.8609 321.65ZM103.771 330.16C102.925 330.16 102.271 329.923 101.811 329.45C101.358 328.97 101.131 328.297 101.131 327.43V321.49H100.011C99.8914 321.49 99.7881 321.453 99.7014 321.38C99.6147 321.3 99.5714 321.183 99.5714 321.03V320.16L101.221 319.92L101.691 316.97C101.725 316.857 101.781 316.767 101.861 316.7C101.941 316.627 102.048 316.59 102.181 316.59H103.281V319.94H106.111V321.49H103.281V327.28C103.281 327.647 103.371 327.927 103.551 328.12C103.731 328.313 103.971 328.41 104.271 328.41C104.438 328.41 104.581 328.39 104.701 328.35C104.821 328.303 104.925 328.257 105.011 328.21C105.098 328.157 105.171 328.11 105.231 328.07C105.298 328.023 105.361 328 105.421 328C105.541 328 105.638 328.067 105.711 328.2L106.351 329.25C106.018 329.543 105.625 329.77 105.171 329.93C104.718 330.083 104.251 330.16 103.771 330.16ZM120.717 318.06C120.643 318.18 120.567 318.27 120.487 318.33C120.407 318.383 120.307 318.41 120.187 318.41C120.06 318.41 119.917 318.357 119.757 318.25C119.603 318.143 119.41 318.027 119.177 317.9C118.95 317.767 118.68 317.647 118.367 317.54C118.053 317.427 117.68 317.37 117.247 317.37C116.847 317.37 116.493 317.42 116.187 317.52C115.887 317.62 115.633 317.76 115.427 317.94C115.22 318.12 115.063 318.333 114.957 318.58C114.857 318.82 114.807 319.083 114.807 319.37C114.807 319.737 114.903 320.043 115.097 320.29C115.29 320.53 115.543 320.737 115.857 320.91C116.177 321.083 116.54 321.237 116.947 321.37C117.353 321.497 117.767 321.633 118.187 321.78C118.613 321.927 119.03 322.093 119.437 322.28C119.843 322.467 120.203 322.703 120.517 322.99C120.837 323.277 121.093 323.627 121.287 324.04C121.48 324.453 121.577 324.957 121.577 325.55C121.577 326.19 121.467 326.79 121.247 327.35C121.027 327.91 120.707 328.4 120.287 328.82C119.873 329.233 119.36 329.56 118.747 329.8C118.14 330.04 117.447 330.16 116.667 330.16C116.207 330.16 115.757 330.113 115.317 330.02C114.883 329.933 114.467 329.81 114.067 329.65C113.673 329.483 113.303 329.283 112.957 329.05C112.61 328.817 112.3 328.557 112.027 328.27L112.707 327.15C112.767 327.057 112.843 326.983 112.937 326.93C113.03 326.877 113.133 326.85 113.247 326.85C113.4 326.85 113.57 326.923 113.757 327.07C113.943 327.21 114.167 327.367 114.427 327.54C114.693 327.707 115.013 327.863 115.387 328.01C115.76 328.15 116.207 328.22 116.727 328.22C117.573 328.22 118.227 328.013 118.687 327.6C119.153 327.187 119.387 326.617 119.387 325.89C119.387 325.483 119.29 325.153 119.097 324.9C118.903 324.64 118.647 324.423 118.327 324.25C118.013 324.077 117.653 323.93 117.247 323.81C116.84 323.69 116.427 323.563 116.007 323.43C115.587 323.29 115.173 323.13 114.767 322.95C114.36 322.763 113.997 322.523 113.677 322.23C113.363 321.93 113.11 321.563 112.917 321.13C112.723 320.69 112.627 320.143 112.627 319.49C112.627 318.97 112.727 318.467 112.927 317.98C113.133 317.493 113.43 317.063 113.817 316.69C114.21 316.31 114.693 316.007 115.267 315.78C115.84 315.553 116.493 315.44 117.227 315.44C118.053 315.44 118.81 315.57 119.497 315.83C120.19 316.09 120.787 316.46 121.287 316.94L120.717 318.06ZM129.018 325.54C128.251 325.567 127.604 325.63 127.078 325.73C126.551 325.823 126.124 325.947 125.798 326.1C125.471 326.247 125.234 326.423 125.088 326.63C124.948 326.837 124.878 327.063 124.878 327.31C124.878 327.55 124.914 327.757 124.988 327.93C125.068 328.097 125.174 328.237 125.308 328.35C125.448 328.457 125.608 328.537 125.788 328.59C125.974 328.637 126.178 328.66 126.398 328.66C126.958 328.66 127.438 328.557 127.838 328.35C128.244 328.137 128.638 327.83 129.018 327.43V325.54ZM123.318 321.22C124.471 320.147 125.844 319.61 127.438 319.61C128.024 319.61 128.544 319.707 128.998 319.9C129.458 320.087 129.841 320.353 130.148 320.7C130.461 321.047 130.698 321.46 130.858 321.94C131.024 322.413 131.108 322.94 131.108 323.52V330H130.148C129.941 330 129.784 329.97 129.678 329.91C129.571 329.843 129.481 329.713 129.408 329.52L129.198 328.69C128.938 328.923 128.681 329.133 128.428 329.32C128.174 329.5 127.911 329.653 127.638 329.78C127.371 329.907 127.081 330 126.768 330.06C126.461 330.127 126.121 330.16 125.748 330.16C125.334 330.16 124.948 330.103 124.588 329.99C124.234 329.877 123.928 329.707 123.668 329.48C123.408 329.247 123.201 328.96 123.048 328.62C122.901 328.28 122.828 327.88 122.828 327.42C122.828 327.027 122.931 326.643 123.138 326.27C123.351 325.897 123.698 325.563 124.178 325.27C124.664 324.97 125.301 324.723 126.088 324.53C126.881 324.337 127.858 324.227 129.018 324.2V323.52C129.018 322.787 128.861 322.24 128.548 321.88C128.234 321.52 127.774 321.34 127.168 321.34C126.754 321.34 126.408 321.393 126.128 321.5C125.848 321.6 125.604 321.71 125.398 321.83C125.191 321.95 125.008 322.063 124.848 322.17C124.688 322.27 124.518 322.32 124.338 322.32C124.191 322.32 124.064 322.283 123.958 322.21C123.858 322.13 123.774 322.033 123.708 321.92L123.318 321.22ZM135.816 315.2V330H133.666V315.2H135.816ZM143.92 325.54C143.153 325.567 142.507 325.63 141.98 325.73C141.453 325.823 141.027 325.947 140.7 326.1C140.373 326.247 140.137 326.423 139.99 326.63C139.85 326.837 139.78 327.063 139.78 327.31C139.78 327.55 139.817 327.757 139.89 327.93C139.97 328.097 140.077 328.237 140.21 328.35C140.35 328.457 140.51 328.537 140.69 328.59C140.877 328.637 141.08 328.66 141.3 328.66C141.86 328.66 142.34 328.557 142.74 328.35C143.147 328.137 143.54 327.83 143.92 327.43V325.54ZM138.22 321.22C139.373 320.147 140.747 319.61 142.34 319.61C142.927 319.61 143.447 319.707 143.9 319.9C144.36 320.087 144.743 320.353 145.05 320.7C145.363 321.047 145.6 321.46 145.76 321.94C145.927 322.413 146.01 322.94 146.01 323.52V330H145.05C144.843 330 144.687 329.97 144.58 329.91C144.473 329.843 144.383 329.713 144.31 329.52L144.1 328.69C143.84 328.923 143.583 329.133 143.33 329.32C143.077 329.5 142.813 329.653 142.54 329.78C142.273 329.907 141.983 330 141.67 330.06C141.363 330.127 141.023 330.16 140.65 330.16C140.237 330.16 139.85 330.103 139.49 329.99C139.137 329.877 138.83 329.707 138.57 329.48C138.31 329.247 138.103 328.96 137.95 328.62C137.803 328.28 137.73 327.88 137.73 327.42C137.73 327.027 137.833 326.643 138.04 326.27C138.253 325.897 138.6 325.563 139.08 325.27C139.567 324.97 140.203 324.723 140.99 324.53C141.783 324.337 142.76 324.227 143.92 324.2V323.52C143.92 322.787 143.763 322.24 143.45 321.88C143.137 321.52 142.677 321.34 142.07 321.34C141.657 321.34 141.31 321.393 141.03 321.5C140.75 321.6 140.507 321.71 140.3 321.83C140.093 321.95 139.91 322.063 139.75 322.17C139.59 322.27 139.42 322.32 139.24 322.32C139.093 322.32 138.967 322.283 138.86 322.21C138.76 322.13 138.677 322.033 138.61 321.92L138.22 321.22ZM150.559 321.69C150.879 321.043 151.265 320.537 151.719 320.17C152.172 319.797 152.715 319.61 153.349 319.61C153.569 319.61 153.775 319.637 153.969 319.69C154.162 319.737 154.335 319.81 154.489 319.91L154.339 321.53C154.312 321.643 154.269 321.723 154.209 321.77C154.155 321.81 154.082 321.83 153.989 321.83C153.889 321.83 153.745 321.813 153.559 321.78C153.372 321.74 153.175 321.72 152.969 321.72C152.669 321.72 152.402 321.763 152.169 321.85C151.942 321.937 151.735 322.063 151.549 322.23C151.369 322.397 151.209 322.6 151.069 322.84C150.929 323.08 150.799 323.353 150.679 323.66V330H148.529V319.8H149.779C150.005 319.8 150.162 319.843 150.249 319.93C150.335 320.01 150.395 320.153 150.429 320.36L150.559 321.69ZM164.962 319.8L159.342 332.9C159.268 333.053 159.178 333.173 159.072 333.26C158.972 333.347 158.815 333.39 158.602 333.39H157.012L158.892 329.31L154.732 319.8H156.602C156.782 319.8 156.918 319.843 157.012 319.93C157.112 320.01 157.185 320.107 157.232 320.22L159.662 326.01C159.722 326.177 159.775 326.343 159.822 326.51C159.875 326.67 159.925 326.837 159.972 327.01C160.025 326.837 160.078 326.667 160.132 326.5C160.185 326.333 160.245 326.167 160.312 326L162.642 320.22C162.688 320.1 162.765 320 162.872 319.92C162.985 319.84 163.108 319.8 163.242 319.8H164.962ZM53.24 346.8C53.24 347.867 53.0667 348.85 52.72 349.75C52.3733 350.65 51.8833 351.427 51.25 352.08C50.6233 352.727 49.8667 353.233 48.98 353.6C48.1 353.967 47.12 354.15 46.04 354.15C44.9667 354.15 43.9867 353.967 43.1 353.6C42.22 353.233 41.4633 352.727 40.83 352.08C40.1967 351.427 39.7067 350.65 39.36 349.75C39.0133 348.85 38.84 347.867 38.84 346.8C38.84 345.733 39.0133 344.75 39.36 343.85C39.7067 342.95 40.1967 342.173 40.83 341.52C41.4633 340.867 42.22 340.357 43.1 339.99C43.9867 339.623 44.9667 339.44 46.04 339.44C47.12 339.44 48.1 339.623 48.98 339.99C49.8667 340.357 50.6233 340.867 51.25 341.52C51.8833 342.173 52.3733 342.95 52.72 343.85C53.0667 344.75 53.24 345.733 53.24 346.8ZM50.85 346.8C50.85 345.973 50.7367 345.23 50.51 344.57C50.29 343.91 49.97 343.35 49.55 342.89C49.1367 342.43 48.6333 342.077 48.04 341.83C47.4467 341.583 46.78 341.46 46.04 341.46C45.3067 341.46 44.6433 341.583 44.05 341.83C43.4567 342.077 42.95 342.43 42.53 342.89C42.11 343.35 41.7867 343.91 41.56 344.57C41.3333 345.23 41.22 345.973 41.22 346.8C41.22 347.633 41.3333 348.38 41.56 349.04C41.7867 349.7 42.11 350.26 42.53 350.72C42.95 351.173 43.4567 351.523 44.05 351.77C44.6433 352.01 45.3067 352.13 46.04 352.13C46.78 352.13 47.4467 352.01 48.04 351.77C48.6333 351.523 49.1367 351.173 49.55 350.72C49.97 350.26 50.29 349.7 50.51 349.04C50.7367 348.38 50.85 347.633 50.85 346.8ZM55.9961 354V345.51L54.9961 345.37C54.8294 345.337 54.6928 345.277 54.5861 345.19C54.4861 345.103 54.4361 344.98 54.4361 344.82V343.94H55.9961V343.25C55.9961 342.663 56.0794 342.14 56.2461 341.68C56.4194 341.22 56.6628 340.83 56.9761 340.51C57.2961 340.19 57.6828 339.947 58.1361 339.78C58.5894 339.613 59.0994 339.53 59.6661 339.53C59.8994 339.53 60.1194 339.547 60.3261 339.58C60.5394 339.613 60.7461 339.66 60.9461 339.72L60.9061 340.81C60.8928 340.983 60.8028 341.09 60.6361 341.13C60.4761 341.163 60.2728 341.18 60.0261 341.18C59.7261 341.18 59.4561 341.217 59.2161 341.29C58.9761 341.357 58.7694 341.473 58.5961 341.64C58.4294 341.807 58.2994 342.027 58.2061 342.3C58.1194 342.573 58.0761 342.91 58.0761 343.31V343.94H62.3961V342.95C62.3961 342.363 62.4794 341.84 62.6461 341.38C62.8194 340.92 63.0628 340.53 63.3761 340.21C63.6961 339.89 64.0828 339.647 64.5361 339.48C64.9894 339.313 65.4961 339.23 66.0561 339.23C66.2894 339.23 66.5128 339.247 66.7261 339.28C66.9394 339.313 67.1461 339.36 67.3461 339.42L67.2961 340.51C67.2828 340.683 67.1928 340.79 67.0261 340.83C66.8661 340.863 66.6628 340.88 66.4161 340.88C66.1161 340.88 65.8461 340.917 65.6061 340.99C65.3661 341.057 65.1594 341.173 64.9861 341.34C64.8194 341.507 64.6894 341.727 64.5961 342C64.5094 342.273 64.4661 342.61 64.4661 343.01V343.94H67.2561V345.49H64.5361V354H62.3961V345.49H58.1461V354H55.9961ZM75.1992 347.75C75.1992 347.39 75.1459 347.057 75.0392 346.75C74.9392 346.437 74.7892 346.167 74.5892 345.94C74.3892 345.707 74.1392 345.527 73.8392 345.4C73.5459 345.267 73.2059 345.2 72.8192 345.2C72.0392 345.2 71.4259 345.423 70.9792 345.87C70.5326 346.317 70.2492 346.943 70.1292 347.75H75.1992ZM70.0692 349.07C70.0959 349.65 70.1859 350.153 70.3392 350.58C70.4926 351 70.6959 351.35 70.9492 351.63C71.2092 351.91 71.5159 352.12 71.8692 352.26C72.2292 352.393 72.6292 352.46 73.0692 352.46C73.4892 352.46 73.8526 352.413 74.1592 352.32C74.4659 352.22 74.7326 352.113 74.9592 352C75.1859 351.88 75.3792 351.773 75.5392 351.68C75.6992 351.58 75.8459 351.53 75.9792 351.53C76.1526 351.53 76.2859 351.597 76.3792 351.73L76.9892 352.52C76.7359 352.82 76.4492 353.073 76.1292 353.28C75.8092 353.487 75.4692 353.657 75.1092 353.79C74.7492 353.917 74.3792 354.007 73.9992 354.06C73.6192 354.12 73.2492 354.15 72.8892 354.15C72.1826 354.15 71.5259 354.033 70.9192 353.8C70.3192 353.56 69.7959 353.21 69.3492 352.75C68.9092 352.29 68.5626 351.72 68.3092 351.04C68.0626 350.36 67.9392 349.577 67.9392 348.69C67.9392 347.983 68.0492 347.323 68.2692 346.71C68.4959 346.097 68.8159 345.563 69.2292 345.11C69.6492 344.657 70.1559 344.3 70.7492 344.04C71.3492 343.773 72.0259 343.64 72.7792 343.64C73.4059 343.64 73.9859 343.743 74.5192 343.95C75.0526 344.15 75.5126 344.447 75.8992 344.84C76.2859 345.233 76.5859 345.717 76.7992 346.29C77.0192 346.857 77.1292 347.503 77.1292 348.23C77.1292 348.563 77.0926 348.787 77.0192 348.9C76.9459 349.013 76.8126 349.07 76.6192 349.07H70.0692ZM81.1642 345.69C81.4842 345.043 81.8709 344.537 82.3242 344.17C82.7776 343.797 83.3209 343.61 83.9542 343.61C84.1742 343.61 84.3809 343.637 84.5742 343.69C84.7676 343.737 84.9409 343.81 85.0942 343.91L84.9442 345.53C84.9176 345.643 84.8742 345.723 84.8142 345.77C84.7609 345.81 84.6876 345.83 84.5942 345.83C84.4942 345.83 84.3509 345.813 84.1642 345.78C83.9776 345.74 83.7809 345.72 83.5742 345.72C83.2742 345.72 83.0076 345.763 82.7742 345.85C82.5476 345.937 82.3409 346.063 82.1542 346.23C81.9742 346.397 81.8142 346.6 81.6742 346.84C81.5342 347.08 81.4042 347.353 81.2842 347.66V354H79.1342V343.8H80.3842C80.6109 343.8 80.7676 343.843 80.8542 343.93C80.9409 344.01 81.0009 344.153 81.0342 344.36L81.1642 345.69Z" fill="white"/>
</svg>
