<svg width="188" height="168" viewBox="0 0 188 168" fill="none" xmlns="http://www.w3.org/2000/svg">
<circle cx="12" cy="12.5" r="12" fill="white"/>
<path d="M15.874 16.835C16.066 16.835 16.216 16.892 16.324 17.006C16.432 17.114 16.486 17.258 16.486 17.438V18.5H7.81V17.897C7.81 17.777 7.834 17.651 7.882 17.519C7.93 17.381 8.011 17.258 8.125 17.15L12.211 13.055C12.553 12.713 12.862 12.383 13.138 12.065C13.414 11.747 13.648 11.432 13.84 11.12C14.032 10.802 14.179 10.478 14.281 10.148C14.389 9.818 14.443 9.47 14.443 9.104C14.443 8.744 14.386 8.429 14.272 8.159C14.158 7.883 14.002 7.655 13.804 7.475C13.606 7.295 13.372 7.16 13.102 7.07C12.832 6.98 12.541 6.935 12.229 6.935C11.917 6.935 11.629 6.98 11.365 7.07C11.107 7.16 10.876 7.286 10.672 7.448C10.468 7.61 10.297 7.802 10.159 8.024C10.021 8.246 9.922 8.486 9.862 8.744C9.778 8.972 9.67 9.125 9.538 9.203C9.412 9.281 9.226 9.299 8.98 9.257L8.062 9.095C8.146 8.495 8.311 7.967 8.557 7.511C8.803 7.055 9.112 6.674 9.484 6.368C9.856 6.056 10.282 5.822 10.762 5.666C11.248 5.51 11.77 5.432 12.328 5.432C12.892 5.432 13.411 5.516 13.885 5.684C14.365 5.846 14.779 6.083 15.127 6.395C15.475 6.707 15.748 7.088 15.946 7.538C16.144 7.982 16.243 8.486 16.243 9.05C16.243 9.53 16.171 9.977 16.027 10.391C15.889 10.799 15.697 11.189 15.451 11.561C15.211 11.933 14.929 12.296 14.605 12.65C14.287 12.998 13.948 13.352 13.588 13.712L10.312 17.06C10.564 16.994 10.816 16.94 11.068 16.898C11.326 16.856 11.569 16.835 11.797 16.835H15.874Z" fill="#062D52"/>
<path d="M48.03 18.54V20.5H39.71V6.1H42.05V18.54H48.03ZM51.882 10.3V20.5H49.732V10.3H51.882ZM52.242 7.22C52.242 7.41333 52.202 7.59667 52.122 7.77C52.0487 7.94333 51.9454 8.09667 51.812 8.23C51.6787 8.35667 51.522 8.46 51.342 8.54C51.1687 8.61333 50.982 8.65 50.782 8.65C50.5887 8.65 50.4054 8.61333 50.232 8.54C50.0654 8.46 49.9187 8.35667 49.792 8.23C49.6654 8.09667 49.562 7.94333 49.482 7.77C49.4087 7.59667 49.372 7.41333 49.372 7.22C49.372 7.02 49.4087 6.83333 49.482 6.66C49.562 6.48667 49.6654 6.33667 49.792 6.21C49.9187 6.07667 50.0654 5.97333 50.232 5.9C50.4054 5.82 50.5887 5.78 50.782 5.78C50.982 5.78 51.1687 5.82 51.342 5.9C51.522 5.97333 51.6787 6.07667 51.812 6.21C51.9454 6.33667 52.0487 6.48667 52.122 6.66C52.202 6.83333 52.242 7.02 52.242 7.22ZM63.5634 10.3L59.4634 20.5H57.5234L53.4234 10.3H55.1934C55.3601 10.3 55.4968 10.3433 55.6034 10.43C55.7168 10.51 55.7901 10.6067 55.8234 10.72L58.0834 16.66C58.1768 16.94 58.2601 17.2167 58.3334 17.49C58.4068 17.7633 58.4701 18.04 58.5234 18.32C58.5768 18.04 58.6401 17.7667 58.7134 17.5C58.7934 17.2267 58.8801 16.9467 58.9734 16.66L61.2734 10.72C61.3134 10.6 61.3868 10.5 61.4934 10.42C61.6001 10.34 61.7301 10.3 61.8834 10.3H63.5634ZM71.4297 14.25C71.4297 13.89 71.3764 13.5567 71.2697 13.25C71.1697 12.9367 71.0197 12.6667 70.8197 12.44C70.6197 12.2067 70.3697 12.0267 70.0697 11.9C69.7764 11.7667 69.4364 11.7 69.0497 11.7C68.2697 11.7 67.6564 11.9233 67.2097 12.37C66.763 12.8167 66.4797 13.4433 66.3597 14.25H71.4297ZM66.2997 15.57C66.3264 16.15 66.4164 16.6533 66.5697 17.08C66.723 17.5 66.9264 17.85 67.1797 18.13C67.4397 18.41 67.7464 18.62 68.0997 18.76C68.4597 18.8933 68.8597 18.96 69.2997 18.96C69.7197 18.96 70.083 18.9133 70.3897 18.82C70.6964 18.72 70.963 18.6133 71.1897 18.5C71.4164 18.38 71.6097 18.2733 71.7697 18.18C71.9297 18.08 72.0764 18.03 72.2097 18.03C72.383 18.03 72.5164 18.0967 72.6097 18.23L73.2197 19.02C72.9664 19.32 72.6797 19.5733 72.3597 19.78C72.0397 19.9867 71.6997 20.1567 71.3397 20.29C70.9797 20.4167 70.6097 20.5067 70.2297 20.56C69.8497 20.62 69.4797 20.65 69.1197 20.65C68.413 20.65 67.7564 20.5333 67.1497 20.3C66.5497 20.06 66.0264 19.71 65.5797 19.25C65.1397 18.79 64.793 18.22 64.5397 17.54C64.293 16.86 64.1697 16.0767 64.1697 15.19C64.1697 14.4833 64.2797 13.8233 64.4997 13.21C64.7264 12.5967 65.0464 12.0633 65.4597 11.61C65.8797 11.1567 66.3864 10.8 66.9797 10.54C67.5797 10.2733 68.2564 10.14 69.0097 10.14C69.6364 10.14 70.2164 10.2433 70.7497 10.45C71.283 10.65 71.743 10.9467 72.1297 11.34C72.5164 11.7333 72.8164 12.2167 73.0297 12.79C73.2497 13.3567 73.3597 14.0033 73.3597 14.73C73.3597 15.0633 73.323 15.2867 73.2497 15.4C73.1764 15.5133 73.043 15.57 72.8497 15.57H66.2997ZM90.7452 17.29C90.8718 17.29 90.9818 17.34 91.0752 17.44L92.0052 18.45C91.4185 19.1567 90.6985 19.7033 89.8452 20.09C88.9918 20.47 87.9718 20.66 86.7852 20.66C85.7318 20.66 84.7785 20.48 83.9252 20.12C83.0785 19.7533 82.3552 19.2467 81.7552 18.6C81.1552 17.9467 80.6918 17.17 80.3652 16.27C80.0452 15.37 79.8852 14.38 79.8852 13.3C79.8852 12.22 80.0552 11.23 80.3952 10.33C80.7418 9.42333 81.2252 8.64667 81.8452 8C82.4718 7.34667 83.2185 6.84 84.0852 6.48C84.9585 6.12 85.9185 5.94 86.9652 5.94C88.0052 5.94 88.9218 6.11 89.7152 6.45C90.5152 6.78333 91.2085 7.23 91.7952 7.79L91.0252 8.88C90.9718 8.95333 90.9085 9.01667 90.8352 9.07C90.7618 9.12333 90.6618 9.15 90.5352 9.15C90.4018 9.15 90.2485 9.09 90.0752 8.97C89.9085 8.84333 89.6918 8.70667 89.4252 8.56C89.1652 8.40667 88.8352 8.27 88.4352 8.15C88.0418 8.02333 87.5485 7.96 86.9552 7.96C86.2685 7.96 85.6385 8.08 85.0652 8.32C84.4918 8.56 83.9985 8.91 83.5852 9.37C83.1718 9.83 82.8485 10.39 82.6152 11.05C82.3885 11.71 82.2752 12.46 82.2752 13.3C82.2752 14.1467 82.3952 14.9033 82.6352 15.57C82.8752 16.23 83.2052 16.79 83.6252 17.25C84.0452 17.7033 84.5385 18.05 85.1052 18.29C85.6718 18.53 86.2818 18.65 86.9352 18.65C87.3352 18.65 87.6918 18.63 88.0052 18.59C88.3252 18.5433 88.6185 18.4733 88.8852 18.38C89.1518 18.28 89.4018 18.1567 89.6352 18.01C89.8752 17.8633 90.1118 17.6833 90.3452 17.47C90.4785 17.35 90.6118 17.29 90.7452 17.29ZM97.8216 10.14C98.5749 10.14 99.2549 10.2633 99.8616 10.51C100.475 10.7567 100.995 11.1067 101.422 11.56C101.855 12.0133 102.188 12.5633 102.422 13.21C102.655 13.8567 102.772 14.5833 102.772 15.39C102.772 16.1967 102.655 16.9233 102.422 17.57C102.188 18.2167 101.855 18.77 101.422 19.23C100.995 19.6833 100.475 20.0333 99.8616 20.28C99.2549 20.5267 98.5749 20.65 97.8216 20.65C97.0616 20.65 96.3749 20.5267 95.7616 20.28C95.1549 20.0333 94.6349 19.6833 94.2016 19.23C93.7682 18.77 93.4349 18.2167 93.2016 17.57C92.9682 16.9233 92.8516 16.1967 92.8516 15.39C92.8516 14.5833 92.9682 13.8567 93.2016 13.21C93.4349 12.5633 93.7682 12.0133 94.2016 11.56C94.6349 11.1067 95.1549 10.7567 95.7616 10.51C96.3749 10.2633 97.0616 10.14 97.8216 10.14ZM97.8216 18.97C98.7416 18.97 99.4249 18.6633 99.8716 18.05C100.325 17.43 100.552 16.5467 100.552 15.4C100.552 14.2533 100.325 13.37 99.8716 12.75C99.4249 12.1233 98.7416 11.81 97.8216 11.81C96.8882 11.81 96.1949 12.1233 95.7416 12.75C95.2882 13.37 95.0616 14.2533 95.0616 15.4C95.0616 16.5467 95.2882 17.43 95.7416 18.05C96.1949 18.6633 96.8882 18.97 97.8216 18.97ZM106.987 11.51C107.407 11.0967 107.867 10.7667 108.367 10.52C108.867 10.2667 109.451 10.14 110.117 10.14C110.677 10.14 111.167 10.2333 111.587 10.42C112.014 10.6067 112.371 10.87 112.657 11.21C112.951 11.55 113.171 11.96 113.317 12.44C113.464 12.9133 113.537 13.4367 113.537 14.01V20.5H111.397V14.01C111.397 13.3233 111.237 12.79 110.917 12.41C110.604 12.03 110.124 11.84 109.477 11.84C108.997 11.84 108.551 11.95 108.137 12.17C107.731 12.39 107.347 12.69 106.987 13.07V20.5H104.837V5.7H106.987V11.51ZM120.458 10.14C121.212 10.14 121.892 10.2633 122.498 10.51C123.112 10.7567 123.632 11.1067 124.058 11.56C124.492 12.0133 124.825 12.5633 125.058 13.21C125.292 13.8567 125.408 14.5833 125.408 15.39C125.408 16.1967 125.292 16.9233 125.058 17.57C124.825 18.2167 124.492 18.77 124.058 19.23C123.632 19.6833 123.112 20.0333 122.498 20.28C121.892 20.5267 121.212 20.65 120.458 20.65C119.698 20.65 119.012 20.5267 118.398 20.28C117.792 20.0333 117.272 19.6833 116.838 19.23C116.405 18.77 116.072 18.2167 115.838 17.57C115.605 16.9233 115.488 16.1967 115.488 15.39C115.488 14.5833 115.605 13.8567 115.838 13.21C116.072 12.5633 116.405 12.0133 116.838 11.56C117.272 11.1067 117.792 10.7567 118.398 10.51C119.012 10.2633 119.698 10.14 120.458 10.14ZM120.458 18.97C121.378 18.97 122.062 18.6633 122.508 18.05C122.962 17.43 123.188 16.5467 123.188 15.4C123.188 14.2533 122.962 13.37 122.508 12.75C122.062 12.1233 121.378 11.81 120.458 11.81C119.525 11.81 118.832 12.1233 118.378 12.75C117.925 13.37 117.698 14.2533 117.698 15.4C117.698 16.5467 117.925 17.43 118.378 18.05C118.832 18.6633 119.525 18.97 120.458 18.97ZM129.504 12.19C129.824 11.5433 130.211 11.0367 130.664 10.67C131.117 10.2967 131.661 10.11 132.294 10.11C132.514 10.11 132.721 10.1367 132.914 10.19C133.107 10.2367 133.281 10.31 133.434 10.41L133.284 12.03C133.257 12.1433 133.214 12.2233 133.154 12.27C133.101 12.31 133.027 12.33 132.934 12.33C132.834 12.33 132.691 12.3133 132.504 12.28C132.317 12.24 132.121 12.22 131.914 12.22C131.614 12.22 131.347 12.2633 131.114 12.35C130.887 12.4367 130.681 12.5633 130.494 12.73C130.314 12.8967 130.154 13.1 130.014 13.34C129.874 13.58 129.744 13.8533 129.624 14.16V20.5H127.474V10.3H128.724C128.951 10.3 129.107 10.3433 129.194 10.43C129.281 10.51 129.341 10.6533 129.374 10.86L129.504 12.19ZM138.127 20.66C137.28 20.66 136.627 20.4233 136.167 19.95C135.714 19.47 135.487 18.7967 135.487 17.93V11.99H134.367C134.247 11.99 134.144 11.9533 134.057 11.88C133.97 11.8 133.927 11.6833 133.927 11.53V10.66L135.577 10.42L136.047 7.47C136.08 7.35667 136.137 7.26667 136.217 7.2C136.297 7.12667 136.404 7.09 136.537 7.09H137.637V10.44H140.467V11.99H137.637V17.78C137.637 18.1467 137.727 18.4267 137.907 18.62C138.087 18.8133 138.327 18.91 138.627 18.91C138.794 18.91 138.937 18.89 139.057 18.85C139.177 18.8033 139.28 18.7567 139.367 18.71C139.454 18.6567 139.527 18.61 139.587 18.57C139.654 18.5233 139.717 18.5 139.777 18.5C139.897 18.5 139.994 18.5667 140.067 18.7L140.707 19.75C140.374 20.0433 139.98 20.27 139.527 20.43C139.074 20.5833 138.607 20.66 138.127 20.66ZM148.252 12.15C148.198 12.2433 148.138 12.31 148.072 12.35C148.005 12.39 147.922 12.41 147.822 12.41C147.708 12.41 147.585 12.3767 147.452 12.31C147.318 12.2367 147.162 12.1567 146.982 12.07C146.802 11.9833 146.588 11.9067 146.342 11.84C146.102 11.7667 145.818 11.73 145.492 11.73C145.225 11.73 144.982 11.7633 144.762 11.83C144.548 11.89 144.365 11.98 144.212 12.1C144.065 12.2133 143.952 12.35 143.872 12.51C143.792 12.6633 143.752 12.83 143.752 13.01C143.752 13.25 143.825 13.45 143.972 13.61C144.118 13.77 144.312 13.91 144.552 14.03C144.792 14.1433 145.065 14.2467 145.372 14.34C145.678 14.4333 145.992 14.5333 146.312 14.64C146.632 14.7467 146.945 14.87 147.252 15.01C147.558 15.15 147.832 15.3233 148.072 15.53C148.312 15.73 148.505 15.9767 148.652 16.27C148.798 16.5567 148.872 16.9067 148.872 17.32C148.872 17.8 148.785 18.2433 148.612 18.65C148.438 19.0567 148.185 19.41 147.852 19.71C147.518 20.01 147.102 20.2433 146.602 20.41C146.108 20.5767 145.542 20.66 144.902 20.66C144.548 20.66 144.205 20.6267 143.872 20.56C143.545 20.5 143.232 20.4167 142.932 20.31C142.638 20.1967 142.362 20.0633 142.102 19.91C141.848 19.7567 141.622 19.59 141.422 19.41L141.922 18.59C141.982 18.49 142.055 18.4133 142.142 18.36C142.235 18.3 142.348 18.27 142.482 18.27C142.622 18.27 142.758 18.3167 142.892 18.41C143.032 18.4967 143.192 18.5933 143.372 18.7C143.558 18.8067 143.782 18.9067 144.042 19C144.302 19.0867 144.625 19.13 145.012 19.13C145.332 19.13 145.608 19.0933 145.842 19.02C146.075 18.94 146.268 18.8333 146.422 18.7C146.575 18.5667 146.688 18.4167 146.762 18.25C146.835 18.0767 146.872 17.8933 146.872 17.7C146.872 17.44 146.798 17.2267 146.652 17.06C146.505 16.8933 146.308 16.75 146.062 16.63C145.822 16.51 145.545 16.4033 145.232 16.31C144.925 16.2167 144.612 16.1167 144.292 16.01C143.972 15.9033 143.655 15.78 143.342 15.64C143.035 15.5 142.758 15.3233 142.512 15.11C142.272 14.89 142.078 14.6267 141.932 14.32C141.785 14.0067 141.712 13.6267 141.712 13.18C141.712 12.7733 141.792 12.3867 141.952 12.02C142.118 11.6533 142.358 11.33 142.672 11.05C142.992 10.77 143.382 10.55 143.842 10.39C144.308 10.2233 144.845 10.14 145.452 10.14C146.138 10.14 146.762 10.25 147.322 10.47C147.882 10.69 148.352 10.99 148.732 11.37L148.252 12.15Z" fill="white"/>
<circle cx="12" cy="131.5" r="12" fill="white"/>
<path d="M13.534 132.784V127.744C13.534 127.57 13.537 127.387 13.543 127.195C13.555 126.997 13.576 126.793 13.606 126.583L9.079 132.784H13.534ZM16.945 132.784V133.801C16.945 133.903 16.912 133.99 16.846 134.062C16.78 134.134 16.687 134.17 16.567 134.17H15.073V137.5H13.534V134.17H7.864C7.732 134.17 7.621 134.134 7.531 134.062C7.441 133.984 7.381 133.888 7.351 133.774L7.171 132.874L13.417 124.567H15.073V132.784H16.945Z" fill="#062D52"/>
<path d="M42.06 139.5H39.71V125.1H42.06V139.5ZM46.9255 130.65C47.1455 130.423 47.3721 130.22 47.6055 130.04C47.8455 129.853 48.0988 129.693 48.3655 129.56C48.6321 129.427 48.9155 129.323 49.2155 129.25C49.5155 129.177 49.8421 129.14 50.1955 129.14C50.7555 129.14 51.2455 129.233 51.6655 129.42C52.0921 129.607 52.4488 129.87 52.7355 130.21C53.0288 130.55 53.2488 130.96 53.3955 131.44C53.5421 131.913 53.6155 132.437 53.6155 133.01V139.5H51.4755V133.01C51.4755 132.323 51.3155 131.79 50.9955 131.41C50.6821 131.03 50.2021 130.84 49.5555 130.84C49.0755 130.84 48.6288 130.95 48.2155 131.17C47.8088 131.39 47.4255 131.69 47.0655 132.07V139.5H44.9155V129.3H46.2155C46.5088 129.3 46.6955 129.437 46.7755 129.71L46.9255 130.65ZM62.6364 131.81C62.3364 131.423 62.0064 131.153 61.6464 131C61.2864 130.847 60.8964 130.77 60.4764 130.77C59.6364 130.77 58.9797 131.08 58.5064 131.7C58.0331 132.313 57.7964 133.223 57.7964 134.43C57.7964 135.057 57.8497 135.593 57.9564 136.04C58.0631 136.48 58.2164 136.84 58.4164 137.12C58.6164 137.4 58.8597 137.603 59.1464 137.73C59.4331 137.857 59.7564 137.92 60.1164 137.92C60.6631 137.92 61.1331 137.803 61.5264 137.57C61.9264 137.33 62.2964 136.993 62.6364 136.56V131.81ZM64.7864 124.7V139.5H63.4864C63.1997 139.5 63.0164 139.363 62.9364 139.09L62.7464 137.98C62.3197 138.48 61.8331 138.883 61.2864 139.19C60.7464 139.497 60.1164 139.65 59.3964 139.65C58.8231 139.65 58.3031 139.537 57.8364 139.31C57.3697 139.077 56.9697 138.74 56.6364 138.3C56.3031 137.86 56.0431 137.317 55.8564 136.67C55.6764 136.017 55.5864 135.27 55.5864 134.43C55.5864 133.67 55.6864 132.967 55.8864 132.32C56.0931 131.673 56.3864 131.113 56.7664 130.64C57.1464 130.16 57.6064 129.787 58.1464 129.52C58.6931 129.247 59.3031 129.11 59.9764 129.11C60.5764 129.11 61.0864 129.207 61.5064 129.4C61.9264 129.587 62.3031 129.85 62.6364 130.19V124.7H64.7864ZM76.0155 129.3V139.5H74.7155C74.4288 139.5 74.2455 139.363 74.1655 139.09L74.0055 138.14C73.7921 138.367 73.5655 138.573 73.3255 138.76C73.0921 138.947 72.8421 139.107 72.5755 139.24C72.3088 139.373 72.0221 139.477 71.7155 139.55C71.4155 139.623 71.0921 139.66 70.7455 139.66C70.1855 139.66 69.6921 139.567 69.2655 139.38C68.8388 139.193 68.4788 138.93 68.1855 138.59C67.8988 138.25 67.6821 137.843 67.5355 137.37C67.3888 136.89 67.3155 136.363 67.3155 135.79V129.3H69.4655V135.79C69.4655 136.477 69.6221 137.01 69.9355 137.39C70.2555 137.77 70.7388 137.96 71.3855 137.96C71.8588 137.96 72.2988 137.853 72.7055 137.64C73.1188 137.42 73.5055 137.12 73.8655 136.74V129.3H76.0155ZM84.7164 131.15C84.6631 131.243 84.6031 131.31 84.5364 131.35C84.4697 131.39 84.3864 131.41 84.2864 131.41C84.1731 131.41 84.0497 131.377 83.9164 131.31C83.7831 131.237 83.6264 131.157 83.4464 131.07C83.2664 130.983 83.0531 130.907 82.8064 130.84C82.5664 130.767 82.2831 130.73 81.9564 130.73C81.6897 130.73 81.4464 130.763 81.2264 130.83C81.0131 130.89 80.8297 130.98 80.6764 131.1C80.5297 131.213 80.4164 131.35 80.3364 131.51C80.2564 131.663 80.2164 131.83 80.2164 132.01C80.2164 132.25 80.2897 132.45 80.4364 132.61C80.5831 132.77 80.7764 132.91 81.0164 133.03C81.2564 133.143 81.5297 133.247 81.8364 133.34C82.1431 133.433 82.4564 133.533 82.7764 133.64C83.0964 133.747 83.4097 133.87 83.7164 134.01C84.0231 134.15 84.2964 134.323 84.5364 134.53C84.7764 134.73 84.9697 134.977 85.1164 135.27C85.2631 135.557 85.3364 135.907 85.3364 136.32C85.3364 136.8 85.2497 137.243 85.0764 137.65C84.9031 138.057 84.6497 138.41 84.3164 138.71C83.9831 139.01 83.5664 139.243 83.0664 139.41C82.5731 139.577 82.0064 139.66 81.3664 139.66C81.0131 139.66 80.6697 139.627 80.3364 139.56C80.0097 139.5 79.6964 139.417 79.3964 139.31C79.1031 139.197 78.8264 139.063 78.5664 138.91C78.3131 138.757 78.0864 138.59 77.8864 138.41L78.3864 137.59C78.4464 137.49 78.5197 137.413 78.6064 137.36C78.6997 137.3 78.8131 137.27 78.9464 137.27C79.0864 137.27 79.2231 137.317 79.3564 137.41C79.4964 137.497 79.6564 137.593 79.8364 137.7C80.0231 137.807 80.2464 137.907 80.5064 138C80.7664 138.087 81.0897 138.13 81.4764 138.13C81.7964 138.13 82.0731 138.093 82.3064 138.02C82.5397 137.94 82.7331 137.833 82.8864 137.7C83.0397 137.567 83.1531 137.417 83.2264 137.25C83.2997 137.077 83.3364 136.893 83.3364 136.7C83.3364 136.44 83.2631 136.227 83.1164 136.06C82.9697 135.893 82.7731 135.75 82.5264 135.63C82.2864 135.51 82.0097 135.403 81.6964 135.31C81.3897 135.217 81.0764 135.117 80.7564 135.01C80.4364 134.903 80.1197 134.78 79.8064 134.64C79.4997 134.5 79.2231 134.323 78.9764 134.11C78.7364 133.89 78.5431 133.627 78.3964 133.32C78.2497 133.007 78.1764 132.627 78.1764 132.18C78.1764 131.773 78.2564 131.387 78.4164 131.02C78.5831 130.653 78.8231 130.33 79.1364 130.05C79.4564 129.77 79.8464 129.55 80.3064 129.39C80.7731 129.223 81.3097 129.14 81.9164 129.14C82.6031 129.14 83.2264 129.25 83.7864 129.47C84.3464 129.69 84.8164 129.99 85.1964 130.37L84.7164 131.15ZM90.6269 139.66C89.7802 139.66 89.1269 139.423 88.6669 138.95C88.2135 138.47 87.9869 137.797 87.9869 136.93V130.99H86.8669C86.7469 130.99 86.6435 130.953 86.5569 130.88C86.4702 130.8 86.4269 130.683 86.4269 130.53V129.66L88.0769 129.42L88.5469 126.47C88.5802 126.357 88.6369 126.267 88.7169 126.2C88.7969 126.127 88.9035 126.09 89.0369 126.09H90.1369V129.44H92.9669V130.99H90.1369V136.78C90.1369 137.147 90.2269 137.427 90.4069 137.62C90.5869 137.813 90.8269 137.91 91.1269 137.91C91.2935 137.91 91.4369 137.89 91.5569 137.85C91.6769 137.803 91.7802 137.757 91.8669 137.71C91.9535 137.657 92.0269 137.61 92.0869 137.57C92.1535 137.523 92.2169 137.5 92.2769 137.5C92.3969 137.5 92.4935 137.567 92.5669 137.7L93.2069 138.75C92.8735 139.043 92.4802 139.27 92.0269 139.43C91.5735 139.583 91.1069 139.66 90.6269 139.66ZM96.6916 131.19C97.0116 130.543 97.3982 130.037 97.8516 129.67C98.3049 129.297 98.8482 129.11 99.4816 129.11C99.7016 129.11 99.9082 129.137 100.102 129.19C100.295 129.237 100.468 129.31 100.622 129.41L100.472 131.03C100.445 131.143 100.402 131.223 100.342 131.27C100.288 131.31 100.215 131.33 100.122 131.33C100.022 131.33 99.8782 131.313 99.6916 131.28C99.5049 131.24 99.3082 131.22 99.1016 131.22C98.8016 131.22 98.5349 131.263 98.3016 131.35C98.0749 131.437 97.8682 131.563 97.6816 131.73C97.5016 131.897 97.3416 132.1 97.2016 132.34C97.0616 132.58 96.9316 132.853 96.8116 133.16V139.5H94.6616V129.3H95.9116C96.1382 129.3 96.2949 129.343 96.3816 129.43C96.4682 129.51 96.5282 129.653 96.5616 129.86L96.6916 131.19ZM104.284 129.3V139.5H102.134V129.3H104.284ZM104.644 126.22C104.644 126.413 104.604 126.597 104.524 126.77C104.451 126.943 104.348 127.097 104.214 127.23C104.081 127.357 103.924 127.46 103.744 127.54C103.571 127.613 103.384 127.65 103.184 127.65C102.991 127.65 102.808 127.613 102.634 127.54C102.468 127.46 102.321 127.357 102.194 127.23C102.068 127.097 101.964 126.943 101.884 126.77C101.811 126.597 101.774 126.413 101.774 126.22C101.774 126.02 101.811 125.833 101.884 125.66C101.964 125.487 102.068 125.337 102.194 125.21C102.321 125.077 102.468 124.973 102.634 124.9C102.808 124.82 102.991 124.78 103.184 124.78C103.384 124.78 103.571 124.82 103.744 124.9C103.924 124.973 104.081 125.077 104.214 125.21C104.348 125.337 104.451 125.487 104.524 125.66C104.604 125.833 104.644 126.02 104.644 126.22ZM112.436 135.04C111.669 135.067 111.022 135.13 110.496 135.23C109.969 135.323 109.542 135.447 109.216 135.6C108.889 135.747 108.652 135.923 108.506 136.13C108.366 136.337 108.296 136.563 108.296 136.81C108.296 137.05 108.332 137.257 108.406 137.43C108.486 137.597 108.592 137.737 108.726 137.85C108.866 137.957 109.026 138.037 109.206 138.09C109.392 138.137 109.596 138.16 109.816 138.16C110.376 138.16 110.856 138.057 111.256 137.85C111.662 137.637 112.056 137.33 112.436 136.93V135.04ZM106.736 130.72C107.889 129.647 109.262 129.11 110.856 129.11C111.442 129.11 111.962 129.207 112.416 129.4C112.876 129.587 113.259 129.853 113.566 130.2C113.879 130.547 114.116 130.96 114.276 131.44C114.442 131.913 114.526 132.44 114.526 133.02V139.5H113.566C113.359 139.5 113.202 139.47 113.096 139.41C112.989 139.343 112.899 139.213 112.826 139.02L112.616 138.19C112.356 138.423 112.099 138.633 111.846 138.82C111.592 139 111.329 139.153 111.056 139.28C110.789 139.407 110.499 139.5 110.186 139.56C109.879 139.627 109.539 139.66 109.166 139.66C108.752 139.66 108.366 139.603 108.006 139.49C107.652 139.377 107.346 139.207 107.086 138.98C106.826 138.747 106.619 138.46 106.466 138.12C106.319 137.78 106.246 137.38 106.246 136.92C106.246 136.527 106.349 136.143 106.556 135.77C106.769 135.397 107.116 135.063 107.596 134.77C108.082 134.47 108.719 134.223 109.506 134.03C110.299 133.837 111.276 133.727 112.436 133.7V133.02C112.436 132.287 112.279 131.74 111.966 131.38C111.652 131.02 111.192 130.84 110.586 130.84C110.172 130.84 109.826 130.893 109.546 131C109.266 131.1 109.022 131.21 108.816 131.33C108.609 131.45 108.426 131.563 108.266 131.67C108.106 131.77 107.936 131.82 107.756 131.82C107.609 131.82 107.482 131.783 107.376 131.71C107.276 131.63 107.192 131.533 107.126 131.42L106.736 130.72ZM119.234 124.7V139.5H117.084V124.7H119.234ZM137.269 136.29C137.395 136.29 137.505 136.34 137.599 136.44L138.529 137.45C137.942 138.157 137.222 138.703 136.369 139.09C135.515 139.47 134.495 139.66 133.309 139.66C132.255 139.66 131.302 139.48 130.449 139.12C129.602 138.753 128.879 138.247 128.279 137.6C127.679 136.947 127.215 136.17 126.889 135.27C126.569 134.37 126.409 133.38 126.409 132.3C126.409 131.22 126.579 130.23 126.919 129.33C127.265 128.423 127.749 127.647 128.369 127C128.995 126.347 129.742 125.84 130.609 125.48C131.482 125.12 132.442 124.94 133.489 124.94C134.529 124.94 135.445 125.11 136.239 125.45C137.039 125.783 137.732 126.23 138.319 126.79L137.549 127.88C137.495 127.953 137.432 128.017 137.359 128.07C137.285 128.123 137.185 128.15 137.059 128.15C136.925 128.15 136.772 128.09 136.599 127.97C136.432 127.843 136.215 127.707 135.949 127.56C135.689 127.407 135.359 127.27 134.959 127.15C134.565 127.023 134.072 126.96 133.479 126.96C132.792 126.96 132.162 127.08 131.589 127.32C131.015 127.56 130.522 127.91 130.109 128.37C129.695 128.83 129.372 129.39 129.139 130.05C128.912 130.71 128.799 131.46 128.799 132.3C128.799 133.147 128.919 133.903 129.159 134.57C129.399 135.23 129.729 135.79 130.149 136.25C130.569 136.703 131.062 137.05 131.629 137.29C132.195 137.53 132.805 137.65 133.459 137.65C133.859 137.65 134.215 137.63 134.529 137.59C134.849 137.543 135.142 137.473 135.409 137.38C135.675 137.28 135.925 137.157 136.159 137.01C136.399 136.863 136.635 136.683 136.869 136.47C137.002 136.35 137.135 136.29 137.269 136.29ZM145.6 135.04C144.833 135.067 144.187 135.13 143.66 135.23C143.133 135.323 142.707 135.447 142.38 135.6C142.053 135.747 141.817 135.923 141.67 136.13C141.53 136.337 141.46 136.563 141.46 136.81C141.46 137.05 141.497 137.257 141.57 137.43C141.65 137.597 141.757 137.737 141.89 137.85C142.03 137.957 142.19 138.037 142.37 138.09C142.557 138.137 142.76 138.16 142.98 138.16C143.54 138.16 144.02 138.057 144.42 137.85C144.827 137.637 145.22 137.33 145.6 136.93V135.04ZM139.9 130.72C141.053 129.647 142.427 129.11 144.02 129.11C144.607 129.11 145.127 129.207 145.58 129.4C146.04 129.587 146.423 129.853 146.73 130.2C147.043 130.547 147.28 130.96 147.44 131.44C147.607 131.913 147.69 132.44 147.69 133.02V139.5H146.73C146.523 139.5 146.367 139.47 146.26 139.41C146.153 139.343 146.063 139.213 145.99 139.02L145.78 138.19C145.52 138.423 145.263 138.633 145.01 138.82C144.757 139 144.493 139.153 144.22 139.28C143.953 139.407 143.663 139.5 143.35 139.56C143.043 139.627 142.703 139.66 142.33 139.66C141.917 139.66 141.53 139.603 141.17 139.49C140.817 139.377 140.51 139.207 140.25 138.98C139.99 138.747 139.783 138.46 139.63 138.12C139.483 137.78 139.41 137.38 139.41 136.92C139.41 136.527 139.513 136.143 139.72 135.77C139.933 135.397 140.28 135.063 140.76 134.77C141.247 134.47 141.883 134.223 142.67 134.03C143.463 133.837 144.44 133.727 145.6 133.7V133.02C145.6 132.287 145.443 131.74 145.13 131.38C144.817 131.02 144.357 130.84 143.75 130.84C143.337 130.84 142.99 130.893 142.71 131C142.43 131.1 142.187 131.21 141.98 131.33C141.773 131.45 141.59 131.563 141.43 131.67C141.27 131.77 141.1 131.82 140.92 131.82C140.773 131.82 140.647 131.783 140.54 131.71C140.44 131.63 140.357 131.533 140.29 131.42L139.9 130.72ZM156.298 131.15C156.245 131.243 156.185 131.31 156.118 131.35C156.052 131.39 155.968 131.41 155.868 131.41C155.755 131.41 155.632 131.377 155.498 131.31C155.365 131.237 155.208 131.157 155.028 131.07C154.848 130.983 154.635 130.907 154.388 130.84C154.148 130.767 153.865 130.73 153.538 130.73C153.272 130.73 153.028 130.763 152.808 130.83C152.595 130.89 152.412 130.98 152.258 131.1C152.112 131.213 151.998 131.35 151.918 131.51C151.838 131.663 151.798 131.83 151.798 132.01C151.798 132.25 151.872 132.45 152.018 132.61C152.165 132.77 152.358 132.91 152.598 133.03C152.838 133.143 153.112 133.247 153.418 133.34C153.725 133.433 154.038 133.533 154.358 133.64C154.678 133.747 154.992 133.87 155.298 134.01C155.605 134.15 155.878 134.323 156.118 134.53C156.358 134.73 156.552 134.977 156.698 135.27C156.845 135.557 156.918 135.907 156.918 136.32C156.918 136.8 156.832 137.243 156.658 137.65C156.485 138.057 156.232 138.41 155.898 138.71C155.565 139.01 155.148 139.243 154.648 139.41C154.155 139.577 153.588 139.66 152.948 139.66C152.595 139.66 152.252 139.627 151.918 139.56C151.592 139.5 151.278 139.417 150.978 139.31C150.685 139.197 150.408 139.063 150.148 138.91C149.895 138.757 149.668 138.59 149.468 138.41L149.968 137.59C150.028 137.49 150.102 137.413 150.188 137.36C150.282 137.3 150.395 137.27 150.528 137.27C150.668 137.27 150.805 137.317 150.938 137.41C151.078 137.497 151.238 137.593 151.418 137.7C151.605 137.807 151.828 137.907 152.088 138C152.348 138.087 152.672 138.13 153.058 138.13C153.378 138.13 153.655 138.093 153.888 138.02C154.122 137.94 154.315 137.833 154.468 137.7C154.622 137.567 154.735 137.417 154.808 137.25C154.882 137.077 154.918 136.893 154.918 136.7C154.918 136.44 154.845 136.227 154.698 136.06C154.552 135.893 154.355 135.75 154.108 135.63C153.868 135.51 153.592 135.403 153.278 135.31C152.972 135.217 152.658 135.117 152.338 135.01C152.018 134.903 151.702 134.78 151.388 134.64C151.082 134.5 150.805 134.323 150.558 134.11C150.318 133.89 150.125 133.627 149.978 133.32C149.832 133.007 149.758 132.627 149.758 132.18C149.758 131.773 149.838 131.387 149.998 131.02C150.165 130.653 150.405 130.33 150.718 130.05C151.038 129.77 151.428 129.55 151.888 129.39C152.355 129.223 152.892 129.14 153.498 129.14C154.185 129.14 154.808 129.25 155.368 129.47C155.928 129.69 156.398 129.99 156.778 130.37L156.298 131.15ZM165.629 133.25C165.629 132.89 165.576 132.557 165.469 132.25C165.369 131.937 165.219 131.667 165.019 131.44C164.819 131.207 164.569 131.027 164.269 130.9C163.976 130.767 163.636 130.7 163.249 130.7C162.469 130.7 161.856 130.923 161.409 131.37C160.962 131.817 160.679 132.443 160.559 133.25H165.629ZM160.499 134.57C160.526 135.15 160.616 135.653 160.769 136.08C160.922 136.5 161.126 136.85 161.379 137.13C161.639 137.41 161.946 137.62 162.299 137.76C162.659 137.893 163.059 137.96 163.499 137.96C163.919 137.96 164.282 137.913 164.589 137.82C164.896 137.72 165.162 137.613 165.389 137.5C165.616 137.38 165.809 137.273 165.969 137.18C166.129 137.08 166.276 137.03 166.409 137.03C166.582 137.03 166.716 137.097 166.809 137.23L167.419 138.02C167.166 138.32 166.879 138.573 166.559 138.78C166.239 138.987 165.899 139.157 165.539 139.29C165.179 139.417 164.809 139.507 164.429 139.56C164.049 139.62 163.679 139.65 163.319 139.65C162.612 139.65 161.956 139.533 161.349 139.3C160.749 139.06 160.226 138.71 159.779 138.25C159.339 137.79 158.992 137.22 158.739 136.54C158.492 135.86 158.369 135.077 158.369 134.19C158.369 133.483 158.479 132.823 158.699 132.21C158.926 131.597 159.246 131.063 159.659 130.61C160.079 130.157 160.586 129.8 161.179 129.54C161.779 129.273 162.456 129.14 163.209 129.14C163.836 129.14 164.416 129.243 164.949 129.45C165.482 129.65 165.942 129.947 166.329 130.34C166.716 130.733 167.016 131.217 167.229 131.79C167.449 132.357 167.559 133.003 167.559 133.73C167.559 134.063 167.522 134.287 167.449 134.4C167.376 134.513 167.242 134.57 167.049 134.57H160.499ZM47.24 151.56C47.1667 151.68 47.09 151.77 47.01 151.83C46.93 151.883 46.83 151.91 46.71 151.91C46.5833 151.91 46.44 151.857 46.28 151.75C46.1267 151.643 45.9333 151.527 45.7 151.4C45.4733 151.267 45.2033 151.147 44.89 151.04C44.5767 150.927 44.2033 150.87 43.77 150.87C43.37 150.87 43.0167 150.92 42.71 151.02C42.41 151.12 42.1567 151.26 41.95 151.44C41.7433 151.62 41.5867 151.833 41.48 152.08C41.38 152.32 41.33 152.583 41.33 152.87C41.33 153.237 41.4267 153.543 41.62 153.79C41.8133 154.03 42.0667 154.237 42.38 154.41C42.7 154.583 43.0633 154.737 43.47 154.87C43.8767 154.997 44.29 155.133 44.71 155.28C45.1367 155.427 45.5533 155.593 45.96 155.78C46.3667 155.967 46.7267 156.203 47.04 156.49C47.36 156.777 47.6167 157.127 47.81 157.54C48.0033 157.953 48.1 158.457 48.1 159.05C48.1 159.69 47.99 160.29 47.77 160.85C47.55 161.41 47.23 161.9 46.81 162.32C46.3967 162.733 45.8833 163.06 45.27 163.3C44.6633 163.54 43.97 163.66 43.19 163.66C42.73 163.66 42.28 163.613 41.84 163.52C41.4067 163.433 40.99 163.31 40.59 163.15C40.1967 162.983 39.8267 162.783 39.48 162.55C39.1333 162.317 38.8233 162.057 38.55 161.77L39.23 160.65C39.29 160.557 39.3667 160.483 39.46 160.43C39.5533 160.377 39.6567 160.35 39.77 160.35C39.9233 160.35 40.0933 160.423 40.28 160.57C40.4667 160.71 40.69 160.867 40.95 161.04C41.2167 161.207 41.5367 161.363 41.91 161.51C42.2833 161.65 42.73 161.72 43.25 161.72C44.0967 161.72 44.75 161.513 45.21 161.1C45.6767 160.687 45.91 160.117 45.91 159.39C45.91 158.983 45.8133 158.653 45.62 158.4C45.4267 158.14 45.17 157.923 44.85 157.75C44.5367 157.577 44.1767 157.43 43.77 157.31C43.3633 157.19 42.95 157.063 42.53 156.93C42.11 156.79 41.6967 156.63 41.29 156.45C40.8833 156.263 40.52 156.023 40.2 155.73C39.8867 155.43 39.6333 155.063 39.44 154.63C39.2467 154.19 39.15 153.643 39.15 152.99C39.15 152.47 39.25 151.967 39.45 151.48C39.6567 150.993 39.9533 150.563 40.34 150.19C40.7333 149.81 41.2167 149.507 41.79 149.28C42.3633 149.053 43.0167 148.94 43.75 148.94C44.5767 148.94 45.3333 149.07 46.02 149.33C46.7133 149.59 47.31 149.96 47.81 150.44L47.24 151.56ZM53.0488 163.66C52.2021 163.66 51.5488 163.423 51.0888 162.95C50.6354 162.47 50.4088 161.797 50.4088 160.93V154.99H49.2888C49.1688 154.99 49.0654 154.953 48.9788 154.88C48.8921 154.8 48.8488 154.683 48.8488 154.53V153.66L50.4988 153.42L50.9688 150.47C51.0021 150.357 51.0588 150.267 51.1388 150.2C51.2188 150.127 51.3254 150.09 51.4588 150.09H52.5588V153.44H55.3888V154.99H52.5588V160.78C52.5588 161.147 52.6488 161.427 52.8288 161.62C53.0088 161.813 53.2488 161.91 53.5488 161.91C53.7154 161.91 53.8588 161.89 53.9787 161.85C54.0988 161.803 54.2021 161.757 54.2888 161.71C54.3754 161.657 54.4488 161.61 54.5088 161.57C54.5754 161.523 54.6388 161.5 54.6988 161.5C54.8188 161.5 54.9154 161.567 54.9888 161.7L55.6288 162.75C55.2954 163.043 54.9021 163.27 54.4488 163.43C53.9954 163.583 53.5288 163.66 53.0488 163.66ZM65.6834 153.3V163.5H64.3834C64.0968 163.5 63.9134 163.363 63.8334 163.09L63.6734 162.14C63.4601 162.367 63.2334 162.573 62.9934 162.76C62.7601 162.947 62.5101 163.107 62.2434 163.24C61.9768 163.373 61.6901 163.477 61.3834 163.55C61.0834 163.623 60.7601 163.66 60.4134 163.66C59.8534 163.66 59.3601 163.567 58.9334 163.38C58.5068 163.193 58.1468 162.93 57.8534 162.59C57.5668 162.25 57.3501 161.843 57.2034 161.37C57.0568 160.89 56.9834 160.363 56.9834 159.79V153.3H59.1334V159.79C59.1334 160.477 59.2901 161.01 59.6034 161.39C59.9234 161.77 60.4068 161.96 61.0534 161.96C61.5268 161.96 61.9668 161.853 62.3734 161.64C62.7868 161.42 63.1734 161.12 63.5334 160.74V153.3H65.6834ZM74.8044 155.81C74.5044 155.423 74.1744 155.153 73.8144 155C73.4544 154.847 73.0644 154.77 72.6444 154.77C71.8044 154.77 71.1477 155.08 70.6744 155.7C70.201 156.313 69.9644 157.223 69.9644 158.43C69.9644 159.057 70.0177 159.593 70.1244 160.04C70.231 160.48 70.3844 160.84 70.5844 161.12C70.7844 161.4 71.0277 161.603 71.3144 161.73C71.601 161.857 71.9244 161.92 72.2844 161.92C72.831 161.92 73.301 161.803 73.6944 161.57C74.0944 161.33 74.4644 160.993 74.8044 160.56V155.81ZM76.9544 148.7V163.5H75.6544C75.3677 163.5 75.1844 163.363 75.1044 163.09L74.9144 161.98C74.4877 162.48 74.001 162.883 73.4544 163.19C72.9144 163.497 72.2844 163.65 71.5644 163.65C70.991 163.65 70.471 163.537 70.0044 163.31C69.5377 163.077 69.1377 162.74 68.8044 162.3C68.471 161.86 68.211 161.317 68.0244 160.67C67.8444 160.017 67.7544 159.27 67.7544 158.43C67.7544 157.67 67.8544 156.967 68.0544 156.32C68.261 155.673 68.5544 155.113 68.9344 154.64C69.3144 154.16 69.7744 153.787 70.3144 153.52C70.861 153.247 71.471 153.11 72.1444 153.11C72.7444 153.11 73.2544 153.207 73.6744 153.4C74.0944 153.587 74.471 153.85 74.8044 154.19V148.7H76.9544ZM81.8234 153.3V163.5H79.6734V153.3H81.8234ZM82.1834 150.22C82.1834 150.413 82.1434 150.597 82.0634 150.77C81.9901 150.943 81.8868 151.097 81.7534 151.23C81.6201 151.357 81.4634 151.46 81.2834 151.54C81.1101 151.613 80.9234 151.65 80.7234 151.65C80.5301 151.65 80.3468 151.613 80.1734 151.54C80.0068 151.46 79.8601 151.357 79.7334 151.23C79.6068 151.097 79.5034 150.943 79.4234 150.77C79.3501 150.597 79.3134 150.413 79.3134 150.22C79.3134 150.02 79.3501 149.833 79.4234 149.66C79.5034 149.487 79.6068 149.337 79.7334 149.21C79.8601 149.077 80.0068 148.973 80.1734 148.9C80.3468 148.82 80.5301 148.78 80.7234 148.78C80.9234 148.78 81.1101 148.82 81.2834 148.9C81.4634 148.973 81.6201 149.077 81.7534 149.21C81.8868 149.337 81.9901 149.487 82.0634 149.66C82.1434 149.833 82.1834 150.02 82.1834 150.22ZM91.2148 157.25C91.2148 156.89 91.1615 156.557 91.0548 156.25C90.9548 155.937 90.8048 155.667 90.6048 155.44C90.4048 155.207 90.1548 155.027 89.8548 154.9C89.5615 154.767 89.2215 154.7 88.8348 154.7C88.0548 154.7 87.4415 154.923 86.9948 155.37C86.5482 155.817 86.2648 156.443 86.1448 157.25H91.2148ZM86.0848 158.57C86.1115 159.15 86.2015 159.653 86.3548 160.08C86.5082 160.5 86.7115 160.85 86.9648 161.13C87.2248 161.41 87.5315 161.62 87.8848 161.76C88.2448 161.893 88.6448 161.96 89.0848 161.96C89.5048 161.96 89.8682 161.913 90.1748 161.82C90.4815 161.72 90.7482 161.613 90.9748 161.5C91.2015 161.38 91.3948 161.273 91.5548 161.18C91.7148 161.08 91.8615 161.03 91.9948 161.03C92.1682 161.03 92.3015 161.097 92.3948 161.23L93.0048 162.02C92.7515 162.32 92.4648 162.573 92.1448 162.78C91.8248 162.987 91.4848 163.157 91.1248 163.29C90.7648 163.417 90.3948 163.507 90.0148 163.56C89.6348 163.62 89.2648 163.65 88.9048 163.65C88.1982 163.65 87.5415 163.533 86.9348 163.3C86.3348 163.06 85.8115 162.71 85.3648 162.25C84.9248 161.79 84.5782 161.22 84.3248 160.54C84.0782 159.86 83.9548 159.077 83.9548 158.19C83.9548 157.483 84.0648 156.823 84.2848 156.21C84.5115 155.597 84.8315 155.063 85.2448 154.61C85.6648 154.157 86.1715 153.8 86.7648 153.54C87.3648 153.273 88.0415 153.14 88.7948 153.14C89.4215 153.14 90.0015 153.243 90.5348 153.45C91.0682 153.65 91.5282 153.947 91.9148 154.34C92.3015 154.733 92.6015 155.217 92.8148 155.79C93.0348 156.357 93.1448 157.003 93.1448 157.73C93.1448 158.063 93.1082 158.287 93.0348 158.4C92.9615 158.513 92.8282 158.57 92.6348 158.57H86.0848ZM101.24 155.15C101.187 155.243 101.127 155.31 101.06 155.35C100.993 155.39 100.91 155.41 100.81 155.41C100.697 155.41 100.573 155.377 100.44 155.31C100.307 155.237 100.15 155.157 99.9698 155.07C99.7898 154.983 99.5765 154.907 99.3298 154.84C99.0898 154.767 98.8065 154.73 98.4798 154.73C98.2132 154.73 97.9698 154.763 97.7498 154.83C97.5365 154.89 97.3532 154.98 97.1998 155.1C97.0532 155.213 96.9398 155.35 96.8598 155.51C96.7798 155.663 96.7398 155.83 96.7398 156.01C96.7398 156.25 96.8132 156.45 96.9598 156.61C97.1065 156.77 97.2998 156.91 97.5398 157.03C97.7798 157.143 98.0532 157.247 98.3598 157.34C98.6665 157.433 98.9798 157.533 99.2998 157.64C99.6198 157.747 99.9332 157.87 100.24 158.01C100.547 158.15 100.82 158.323 101.06 158.53C101.3 158.73 101.493 158.977 101.64 159.27C101.787 159.557 101.86 159.907 101.86 160.32C101.86 160.8 101.773 161.243 101.6 161.65C101.427 162.057 101.173 162.41 100.84 162.71C100.507 163.01 100.09 163.243 99.5898 163.41C99.0965 163.577 98.5298 163.66 97.8898 163.66C97.5365 163.66 97.1932 163.627 96.8598 163.56C96.5332 163.5 96.2198 163.417 95.9198 163.31C95.6265 163.197 95.3498 163.063 95.0898 162.91C94.8365 162.757 94.6098 162.59 94.4098 162.41L94.9098 161.59C94.9698 161.49 95.0432 161.413 95.1298 161.36C95.2232 161.3 95.3365 161.27 95.4698 161.27C95.6098 161.27 95.7465 161.317 95.8798 161.41C96.0198 161.497 96.1798 161.593 96.3598 161.7C96.5465 161.807 96.7698 161.907 97.0298 162C97.2898 162.087 97.6132 162.13 97.9998 162.13C98.3198 162.13 98.5965 162.093 98.8298 162.02C99.0632 161.94 99.2565 161.833 99.4098 161.7C99.5632 161.567 99.6765 161.417 99.7498 161.25C99.8232 161.077 99.8598 160.893 99.8598 160.7C99.8598 160.44 99.7865 160.227 99.6398 160.06C99.4932 159.893 99.2965 159.75 99.0498 159.63C98.8098 159.51 98.5332 159.403 98.2198 159.31C97.9132 159.217 97.5998 159.117 97.2798 159.01C96.9598 158.903 96.6432 158.78 96.3298 158.64C96.0232 158.5 95.7465 158.323 95.4998 158.11C95.2598 157.89 95.0665 157.627 94.9198 157.32C94.7732 157.007 94.6998 156.627 94.6998 156.18C94.6998 155.773 94.7798 155.387 94.9398 155.02C95.1065 154.653 95.3465 154.33 95.6598 154.05C95.9798 153.77 96.3698 153.55 96.8298 153.39C97.2965 153.223 97.8332 153.14 98.4398 153.14C99.1265 153.14 99.7498 153.25 100.31 153.47C100.87 153.69 101.34 153.99 101.72 154.37L101.24 155.15Z" fill="white"/>
</svg>
