<svg width="110" height="110" viewBox="0 0 110 110" fill="none" xmlns="http://www.w3.org/2000/svg">
<path d="M87.5034 31.1031C82.5416 24.3829 75.6109 19.3737 67.6733 16.7709C59.7356 14.168 51.1846 14.1004 43.2068 16.5776C35.229 19.0547 28.2202 23.9537 23.1528 30.5948C18.0854 37.2358 15.2109 45.2895 14.9281 53.6382C14.6454 61.9869 16.9683 70.2167 21.5747 77.1854C26.1811 84.1541 32.8424 89.5161 40.6343 92.5274C48.4262 95.5387 56.9622 96.0499 65.0578 93.9901C73.1533 91.9303 80.407 87.4016 85.8122 81.0325L83.6273 79.1783C78.6071 85.0938 71.8701 89.2999 64.3512 91.213C56.8322 93.1261 48.9042 92.6513 41.6673 89.8545C34.4304 87.0577 28.2435 82.0775 23.9652 75.6052C19.687 69.1329 17.5294 61.4893 17.7921 53.7352C18.0547 45.9811 20.7245 38.5011 25.4309 32.3331C30.1374 26.1651 36.647 21.615 44.0566 19.3143C51.4661 17.0135 59.4081 17.0763 66.7804 19.4938C74.1527 21.9113 80.5896 26.5636 85.198 32.8052L87.5034 31.1031Z" fill="#ED7600"/>
<path d="M87.5034 31.1031C82.5416 24.3829 75.6109 19.3737 67.6733 16.7709C59.7356 14.168 51.1846 14.1004 43.2068 16.5776C35.229 19.0547 28.2202 23.9537 23.1528 30.5948C18.0854 37.2358 15.2109 45.2895 14.9281 53.6382C14.6454 61.9869 16.9683 70.2167 21.5747 77.1854C26.1811 84.1541 32.8424 89.5161 40.6343 92.5274C48.4262 95.5387 56.9622 96.0499 65.0578 93.9901C73.1533 91.9303 80.407 87.4016 85.8122 81.0325L83.6273 79.1783C78.6071 85.0938 71.8701 89.2999 64.3512 91.213C56.8322 93.1261 48.9042 92.6513 41.6673 89.8545C34.4304 87.0577 28.2435 82.0775 23.9652 75.6052C19.687 69.1329 17.5294 61.4893 17.7921 53.7352C18.0547 45.9811 20.7245 38.5011 25.4309 32.3331C30.1374 26.1651 36.647 21.615 44.0566 19.3143C51.4661 17.0135 59.4081 17.0763 66.7804 19.4938C74.1527 21.9113 80.5896 26.5636 85.198 32.8052L87.5034 31.1031Z" fill="#ED7600"/>
<path fill-rule="evenodd" clip-rule="evenodd" d="M51.5866 43.4385C46.119 43.4385 41.6866 47.8709 41.6866 53.3385C41.6866 58.8061 46.119 63.2385 51.5866 63.2385C54.3208 63.2385 56.7939 62.1319 58.5869 60.3389C60.38 58.5459 61.4866 56.0727 61.4866 53.3385C61.4866 47.8709 57.0542 43.4385 51.5866 43.4385ZM38.9866 53.3385C38.9866 46.3797 44.6278 40.7385 51.5866 40.7385C58.5454 40.7385 64.1866 46.3797 64.1866 53.3385C64.1866 56.3311 63.142 59.0815 61.3997 61.2424L67.3912 67.2339C67.9184 67.7611 67.9184 68.6159 67.3912 69.1431C66.864 69.6703 66.0092 69.6703 65.482 69.1431L59.4905 63.1516C57.3296 64.894 54.5791 65.9385 51.5866 65.9385C44.6278 65.9385 38.9866 60.2973 38.9866 53.3385Z" fill="white"/>
</svg>
