<svg width="23" height="23" viewBox="0 0 23 23" fill="none" xmlns="http://www.w3.org/2000/svg">
<path d="M20.8438 6.46875V16.5312C20.8438 17.7221 19.8784 18.6875 18.6875 18.6875H4.3125C3.12164 18.6875 2.15625 17.7221 2.15625 16.5312V6.46875M20.8438 6.46875C20.8438 5.27789 19.8784 4.3125 18.6875 4.3125H4.3125C3.12164 4.3125 2.15625 5.27789 2.15625 6.46875M20.8438 6.46875V6.70135C20.8438 7.45013 20.4553 8.1453 19.8176 8.53774L12.6301 12.9608C11.9371 13.3873 11.0629 13.3873 10.3699 12.9608L3.18242 8.53774C2.54471 8.1453 2.15625 7.45013 2.15625 6.70135V6.46875" stroke="white" stroke-opacity="0.75" stroke-width="2" stroke-linecap="round" stroke-linejoin="round"/>
</svg>
