<svg width="60" height="60" viewBox="0 0 60 60" fill="none" xmlns="http://www.w3.org/2000/svg">
<path d="M51.8994 29.6373C51.8994 41.8566 41.9937 51.7623 29.7744 51.7623C17.5551 51.7623 7.64941 41.8566 7.64941 29.6373C7.64941 17.418 17.5551 7.5123 29.7744 7.5123C41.9937 7.5123 51.8994 17.418 51.8994 29.6373Z" fill="#121212"/>
<path d="M29.7744 42.5435H29.7929V42.562H29.7744V42.5435Z" fill="#121212"/>
<path d="M24.5601 18.6211C27.4402 16.101 32.1098 16.101 34.9899 18.6211C37.87 21.1412 37.87 25.2271 34.9899 27.7472C34.4886 28.1858 33.9331 28.5481 33.3423 28.8341C31.5091 29.7212 29.775 31.2882 29.775 33.3248V35.1685M51.8994 29.6373C51.8994 41.8566 41.9937 51.7623 29.7744 51.7623C17.5551 51.7623 7.64941 41.8566 7.64941 29.6373C7.64941 17.418 17.5551 7.5123 29.7744 7.5123C41.9937 7.5123 51.8994 17.418 51.8994 29.6373ZM29.7744 42.5435H29.7929V42.562H29.7744V42.5435Z" stroke="white" stroke-width="1.5" stroke-linecap="round" stroke-linejoin="round"/>
</svg>
