<svg width="30" height="30" viewBox="0 0 30 30" fill="none" xmlns="http://www.w3.org/2000/svg">
<path fill-rule="evenodd" clip-rule="evenodd" d="M22.1909 6.60364C22.6239 7.01993 22.6374 7.70837 22.2211 8.14131L16.0586 14.6663C15.8535 14.8795 15.5705 15.0001 15.2747 15.0001C14.9788 15.0001 14.6958 14.8795 14.4908 14.6663L8.32825 8.14131C7.91196 7.70837 7.92546 7.01993 8.3584 6.60364C8.79134 6.18736 9.47977 6.20086 9.89606 6.63379L15.2747 12.3435L20.6533 6.63379C21.0695 6.20086 21.758 6.18736 22.1909 6.60364ZM22.1909 15.3036C22.6239 15.7199 22.6374 16.4084 22.2211 16.8413L16.0586 23.3663C15.8535 23.5795 15.5705 23.7001 15.2747 23.7001C14.9788 23.7001 14.6958 23.5795 14.4908 23.3663L8.32825 16.8413C7.91196 16.4084 7.92546 15.7199 8.3584 15.3036C8.79134 14.8874 9.47977 14.9009 9.89606 15.3338L15.2747 21.0435L20.6533 15.3338C21.0695 14.9009 21.758 14.8874 22.1909 15.3036Z" fill="#FF8F20"/>
</svg>
