<svg width="24" height="25" viewBox="0 0 24 25" fill="none" xmlns="http://www.w3.org/2000/svg">
<path d="M11.4807 3.77331C11.6729 3.31133 12.3273 3.31133 12.5195 3.77331L14.6454 8.88476C14.7264 9.07952 14.9096 9.21259 15.1199 9.22945L20.6381 9.67184C21.1369 9.71183 21.3391 10.3342 20.9591 10.6597L16.7548 14.2612C16.5946 14.3984 16.5246 14.6137 16.5736 14.8189L17.858 20.2038C17.9741 20.6905 17.4447 21.0751 17.0177 20.8143L12.2933 17.9287C12.1133 17.8187 11.8869 17.8187 11.7069 17.9287L6.98251 20.8143C6.55551 21.0751 6.02606 20.6905 6.14215 20.2038L7.42664 14.8189C7.47558 14.6137 7.40562 14.3984 7.24543 14.2612L3.04111 10.6597C2.66112 10.3342 2.86335 9.71183 3.36209 9.67184L8.88034 9.22945C9.0906 9.21259 9.27375 9.07952 9.35476 8.88476L11.4807 3.77331Z" fill="#FFD24A" stroke="#0F172A" stroke-width="1.5" stroke-linecap="round" stroke-linejoin="round"/>
</svg>
