<svg width="32" height="30" viewBox="0 0 32 30" fill="none" xmlns="http://www.w3.org/2000/svg">
<path d="M4.39062 16.4062C4.39062 15.6296 5.04121 15 5.84375 15H8.75C9.55254 15 10.2031 15.6296 10.2031 16.4062V24.8438C10.2031 25.6204 9.55254 26.25 8.75 26.25H5.84375C5.04121 26.25 4.39062 25.6204 4.39062 24.8438V16.4062Z" fill="white"/>
<path d="M13.1094 10.7812C13.1094 10.0046 13.76 9.375 14.5625 9.375H17.4688C18.2713 9.375 18.9219 10.0046 18.9219 10.7812V24.8438C18.9219 25.6204 18.2713 26.25 17.4688 26.25H14.5625C13.76 26.25 13.1094 25.6204 13.1094 24.8438V10.7812Z" fill="white"/>
<path d="M21.8281 5.15625C21.8281 4.3796 22.4787 3.75 23.2812 3.75H26.1875C26.99 3.75 27.6406 4.3796 27.6406 5.15625V24.8438C27.6406 25.6204 26.99 26.25 26.1875 26.25H23.2812C22.4787 26.25 21.8281 25.6204 21.8281 24.8438V5.15625Z" fill="white"/>
<path d="M4.39062 16.4062C4.39062 15.6296 5.04121 15 5.84375 15H8.75C9.55254 15 10.2031 15.6296 10.2031 16.4062V24.8438C10.2031 25.6204 9.55254 26.25 8.75 26.25H5.84375C5.04121 26.25 4.39062 25.6204 4.39062 24.8438V16.4062Z" stroke="#0F172A" stroke-width="1.5" stroke-linecap="round" stroke-linejoin="round"/>
<path d="M13.1094 10.7812C13.1094 10.0046 13.76 9.375 14.5625 9.375H17.4688C18.2713 9.375 18.9219 10.0046 18.9219 10.7812V24.8438C18.9219 25.6204 18.2713 26.25 17.4688 26.25H14.5625C13.76 26.25 13.1094 25.6204 13.1094 24.8438V10.7812Z" stroke="#0F172A" stroke-width="1.5" stroke-linecap="round" stroke-linejoin="round"/>
<path d="M21.8281 5.15625C21.8281 4.3796 22.4787 3.75 23.2812 3.75H26.1875C26.99 3.75 27.6406 4.3796 27.6406 5.15625V24.8438C27.6406 25.6204 26.99 26.25 26.1875 26.25H23.2812C22.4787 26.25 21.8281 25.6204 21.8281 24.8438V5.15625Z" stroke="#0F172A" stroke-width="1.5" stroke-linecap="round" stroke-linejoin="round"/>
</svg>
