<svg width="66" height="67" viewBox="0 0 66 67" fill="none" xmlns="http://www.w3.org/2000/svg">
<path fill-rule="evenodd" clip-rule="evenodd" d="M24.75 12.6496C25.6709 12.6496 26.4802 13.26 26.7331 14.1455L28.9694 21.9725C29.9483 25.3984 32.6262 28.0763 36.0521 29.0552L43.8791 31.2915C44.7645 31.5444 45.375 32.3537 45.375 33.2746C45.375 34.1955 44.7645 35.0048 43.8791 35.2577L36.0521 37.494C32.6262 38.4729 29.9483 41.1508 28.9694 44.5767L26.7331 52.4037C26.4802 53.2891 25.6709 53.8996 24.75 53.8996C23.8291 53.8996 23.0198 53.2891 22.7669 52.4037L20.5306 44.5767C19.5517 41.1508 16.8738 38.4729 13.4479 37.494L5.62089 35.2577C4.73545 35.0048 4.125 34.1955 4.125 33.2746C4.125 32.3537 4.73545 31.5444 5.62089 31.2915L13.4479 29.0552C16.8738 28.0763 19.5517 25.3984 20.5306 21.9725L22.7669 14.1455C23.0198 13.26 23.8291 12.6496 24.75 12.6496Z" fill="#FEC20D"/>
<path fill-rule="evenodd" clip-rule="evenodd" d="M49.5 4.3996C50.4464 4.3996 51.2714 5.04371 51.5009 5.96187L52.2128 8.80939C52.8594 11.3958 54.8788 13.4152 57.4652 14.0618L60.3127 14.7737C61.2309 15.0032 61.875 15.8282 61.875 16.7746C61.875 17.721 61.2309 18.546 60.3127 18.7755L57.4652 19.4874C54.8788 20.134 52.8594 22.1534 52.2128 24.7398L51.5009 27.5873C51.2714 28.5055 50.4464 29.1496 49.5 29.1496C48.5536 29.1496 47.7286 28.5055 47.4991 27.5873L46.7872 24.7398C46.1406 22.1534 44.1212 20.134 41.5348 19.4874L38.6873 18.7755C37.7691 18.546 37.125 17.721 37.125 16.7746C37.125 15.8282 37.7691 15.0032 38.6873 14.7737L41.5348 14.0618C44.1212 13.4152 46.1406 11.3958 46.7872 8.80939L47.4991 5.96187C47.7286 5.04371 48.5536 4.3996 49.5 4.3996Z" fill="#FEC20D"/>
<path fill-rule="evenodd" clip-rule="evenodd" d="M45.375 41.5246C46.2628 41.5246 47.0509 42.0927 47.3317 42.9349L48.4158 46.1874C48.8264 47.4191 49.793 48.3857 51.0247 48.7963L54.2772 49.8804C55.1194 50.1612 55.6875 50.9493 55.6875 51.8371C55.6875 52.7249 55.1194 53.513 54.2772 53.7938L51.0247 54.8779C49.793 55.2885 48.8264 56.2551 48.4158 57.4868L47.3317 60.7393C47.0509 61.5815 46.2628 62.1496 45.375 62.1496C44.4872 62.1496 43.6991 61.5815 43.4183 60.7393L42.3342 57.4868C41.9236 56.2551 40.957 55.2885 39.7253 54.8779L36.4728 53.7938C35.6306 53.513 35.0625 52.7249 35.0625 51.8371C35.0625 50.9493 35.6306 50.1612 36.4728 49.8804L39.7253 48.7963C40.957 48.3857 41.9236 47.4191 42.3342 46.1874L43.4183 42.9349C43.6991 42.0927 44.4872 41.5246 45.375 41.5246Z" fill="#FEC20D"/>
</svg>
