<svg width="19" height="19" viewBox="0 0 19 19" fill="none" xmlns="http://www.w3.org/2000/svg">
<g clip-path="url(#clip0_195_11182)">
<path d="M1.78125 5.34375C1.78125 11.9021 7.09787 17.2188 13.6562 17.2188H15.4375C16.4213 17.2188 17.2188 16.4213 17.2188 15.4375V14.3516C17.2188 13.943 16.9406 13.5867 16.5441 13.4876L13.0424 12.6122C12.6948 12.5253 12.3289 12.6552 12.1139 12.9418L11.3459 13.9659C11.1229 14.2632 10.7374 14.3946 10.3885 14.2668C7.77052 13.3078 5.69221 11.2295 4.73319 8.61148C4.60539 8.26262 4.73683 7.87707 5.03405 7.65415L6.05817 6.88606C6.34484 6.67106 6.47474 6.30519 6.38783 5.95755L5.5124 2.45587C5.41328 2.05939 5.05705 1.78125 4.64837 1.78125H3.5625C2.57874 1.78125 1.78125 2.57874 1.78125 3.5625V5.34375Z" stroke="white" stroke-opacity="0.75" stroke-width="2" stroke-linecap="round" stroke-linejoin="round"/>
</g>
<defs>
<clipPath id="clip0_195_11182">
<rect width="19" height="19" fill="white"/>
</clipPath>
</defs>
</svg>
