<svg width="46" height="47" viewBox="0 0 46 47" fill="none" xmlns="http://www.w3.org/2000/svg">
<path fill-rule="evenodd" clip-rule="evenodd" d="M11.5 23.2746C11.5 22.3219 12.2723 21.5496 13.225 21.5496H28.4922L23.5294 17.043C22.8427 16.3827 22.8212 15.2907 23.4816 14.604C24.1419 13.9173 25.2339 13.8958 25.9206 14.5562L33.9706 22.0312C34.3088 22.3564 34.5 22.8054 34.5 23.2746C34.5 23.7438 34.3088 24.1928 33.9706 24.518L25.9206 31.993C25.2339 32.6534 24.1419 32.6319 23.4816 31.9452C22.8212 31.2585 22.8427 30.1665 23.5294 29.5062L28.4922 24.9996H13.225C12.2723 24.9996 11.5 24.2273 11.5 23.2746Z" fill="#ED7600"/>
</svg>
