<svg width="22" height="22" viewBox="0 0 22 22" fill="none" xmlns="http://www.w3.org/2000/svg">
<path fill-rule="evenodd" clip-rule="evenodd" d="M2.0625 11C2.0625 6.06395 6.06395 2.0625 11 2.0625C15.936 2.0625 19.9375 6.06395 19.9375 11C19.9375 15.936 15.936 19.9375 11 19.9375C6.06395 19.9375 2.0625 15.936 2.0625 11ZM14.3094 9.3371C14.5301 9.02813 14.4586 8.59875 14.1496 8.37806C13.8406 8.15736 13.4113 8.22893 13.1906 8.5379L10.2248 12.69L8.73614 11.2014C8.46765 10.9329 8.03235 10.9329 7.76386 11.2014C7.49538 11.4698 7.49538 11.9052 7.76386 12.1736L9.82636 14.2361C9.96926 14.379 10.1678 14.4518 10.3692 14.4352C10.5706 14.4185 10.7545 14.314 10.8719 14.1496L14.3094 9.3371Z" fill="#636363" stroke="white" stroke-width="1.5"/>
</svg>
