<svg width="74" height="81" viewBox="0 0 74 81" fill="none" xmlns="http://www.w3.org/2000/svg">
<path d="M73.0034 16.7401C68.0416 10.0198 61.1109 5.0107 53.1733 2.40781C45.2356 -0.195072 36.6846 -0.262623 28.7068 2.21453C20.729 4.69169 13.7202 9.5907 8.6528 16.2317C3.58544 22.8727 0.710923 30.9264 0.428138 39.2752C0.145353 47.6239 2.46833 55.8536 7.0747 62.8223C11.6811 69.791 18.3424 75.1531 26.1343 78.1644C33.9262 81.1756 42.4622 81.6869 50.5578 79.627C58.6533 77.5672 65.907 73.0386 71.3122 66.6694L69.1273 64.8153C64.1071 70.7307 57.3701 74.9368 49.8512 76.8499C42.3322 78.763 34.4042 78.2882 27.1673 75.4914C19.9304 72.6946 13.7435 67.7145 9.46524 61.2422C5.18696 54.7698 3.02944 47.1263 3.29209 39.3722C3.55473 31.6181 6.22451 24.138 10.9309 17.97C15.6374 11.802 22.147 7.25195 29.5566 4.95123C36.9661 2.65051 44.9081 2.71325 52.2804 5.13074C59.6527 7.54823 66.0896 12.2006 70.698 18.4422L73.0034 16.7401Z" fill="#ED7600"/>
</svg>
