<svg width="48" height="48" viewBox="0 0 48 48" fill="none" xmlns="http://www.w3.org/2000/svg">
<path d="M24 48C37.2548 48 48 37.2548 48 24C48 10.7452 37.2548 0 24 0C10.7452 0 0 10.7452 0 24C0 37.2548 10.7452 48 24 48Z" fill="#25D366"/>
<path fill-rule="evenodd" clip-rule="evenodd" d="M24.791 37.3533H24.7851C22.3966 37.3525 20.0497 36.7532 17.9653 35.6162L10.3999 37.6008L12.4245 30.2056C11.1756 28.0413 10.5185 25.5863 10.5196 23.071C10.5227 15.2025 16.9247 8.80078 24.7908 8.80078C28.6085 8.80243 32.1917 10.2886 34.8861 12.9862C37.5805 15.6836 39.0636 19.2691 39.062 23.0823C39.0589 30.9491 32.6594 37.3501 24.791 37.3533ZM18.3158 33.0327L18.7489 33.2897C20.5701 34.3705 22.6577 34.9423 24.7862 34.9431H24.791C31.3287 34.9431 36.6498 29.6219 36.6524 23.0815C36.6537 19.912 35.4211 16.9319 33.1816 14.6898C30.9421 12.4477 27.9639 11.2123 24.7956 11.2112C18.2528 11.2112 12.9317 16.5319 12.9291 23.0718C12.9282 25.3131 13.5553 27.4959 14.7426 29.3844L15.0247 29.8332L13.8264 34.2103L18.3158 33.0327ZM31.4923 26.1548C31.741 26.275 31.909 26.3562 31.9807 26.4759C32.0698 26.6246 32.0698 27.3385 31.7728 28.1716C31.4755 29.0046 30.051 29.7648 29.3658 29.8671C28.7515 29.959 27.974 29.9973 27.1199 29.7258C26.6019 29.5615 25.9378 29.3421 25.087 28.9747C21.7441 27.5312 19.4849 24.2912 19.058 23.6788C19.028 23.6359 19.0071 23.6059 18.9955 23.5903L18.9926 23.5865C18.8039 23.3347 17.5394 21.6476 17.5394 19.9016C17.5394 18.259 18.3463 17.3981 18.7176 17.0018C18.7431 16.9746 18.7665 16.9497 18.7874 16.9268C19.1143 16.5698 19.5006 16.4805 19.7383 16.4805C19.976 16.4805 20.214 16.4827 20.4218 16.4932C20.4474 16.4945 20.4741 16.4943 20.5016 16.4941C20.7094 16.4929 20.9685 16.4914 21.2241 17.1053C21.3224 17.3415 21.4663 17.6918 21.618 18.0612C21.9248 18.8082 22.2639 19.6336 22.3235 19.753C22.4127 19.9315 22.4721 20.1396 22.3532 20.3777C22.3354 20.4134 22.3189 20.4471 22.3031 20.4793C22.2138 20.6616 22.1482 20.7956 21.9967 20.9726C21.9371 21.0421 21.8755 21.1171 21.8139 21.1921C21.6912 21.3415 21.5686 21.4909 21.4618 21.5973C21.2832 21.7751 21.0974 21.968 21.3054 22.325C21.5134 22.682 22.2291 23.8497 23.2891 24.7953C24.4287 25.8117 25.4191 26.2413 25.9211 26.459C26.0191 26.5015 26.0985 26.536 26.1568 26.5651C26.5132 26.7437 26.7212 26.7138 26.9293 26.4759C27.1373 26.2379 27.8207 25.4346 28.0583 25.0777C28.296 24.7208 28.5338 24.7803 28.8606 24.8992C29.1876 25.0183 30.9407 25.8809 31.2973 26.0594C31.3669 26.0942 31.432 26.1257 31.4923 26.1548Z" fill="#FDFDFD"/>
</svg>
