<svg width="48" height="48" viewBox="0 0 48 48" fill="none" xmlns="http://www.w3.org/2000/svg">
<path d="M24 48C37.2548 48 48 37.2548 48 24C48 10.7452 37.2548 0 24 0C10.7452 0 0 10.7452 0 24C0 37.2548 10.7452 48 24 48Z" fill="#25D366"/>
<path fill-rule="evenodd" clip-rule="evenodd" d="M24.791 37.3526H24.7851C22.3966 37.3517 20.0497 36.7525 17.9653 35.6155L10.3999 37.6L12.4245 30.2049C11.1756 28.0406 10.5185 25.5855 10.5196 23.0703C10.5227 15.2017 16.9247 8.80005 24.7908 8.80005C28.6085 8.8017 32.1917 10.2879 34.8861 12.9855C37.5805 15.6829 39.0636 19.2684 39.062 23.0816C39.0589 30.9483 32.6594 37.3494 24.791 37.3526ZM18.3158 33.0319L18.7489 33.289C20.5701 34.3697 22.6577 34.9416 24.7862 34.9424H24.791C31.3287 34.9424 36.6498 29.6212 36.6524 23.0807C36.6537 19.9113 35.4211 16.9311 33.1816 14.689C30.9421 12.4469 27.9639 11.2116 24.7956 11.2105C18.2528 11.2105 12.9317 16.5312 12.9291 23.0711C12.9282 25.3124 13.5553 27.4952 14.7426 29.3837L15.0247 29.8325L13.8264 34.2096L18.3158 33.0319ZM31.4923 26.1541C31.741 26.2743 31.909 26.3555 31.9807 26.4752C32.0698 26.6239 32.0698 27.3378 31.7728 28.1709C31.4755 29.0038 30.051 29.764 29.3658 29.8664C28.7515 29.9582 27.974 29.9965 27.1199 29.7251C26.6019 29.5608 25.9378 29.3414 25.087 28.9739C21.7441 27.5305 19.4849 24.2904 19.058 23.6781C19.028 23.6352 19.0071 23.6052 18.9955 23.5896L18.9926 23.5858C18.8039 23.334 17.5394 21.6469 17.5394 19.9008C17.5394 18.2583 18.3463 17.3974 18.7176 17.0011C18.7431 16.9739 18.7665 16.9489 18.7874 16.9261C19.1143 16.5691 19.5006 16.4798 19.7383 16.4798C19.976 16.4798 20.214 16.482 20.4218 16.4924C20.4474 16.4937 20.4741 16.4936 20.5016 16.4934C20.7094 16.4922 20.9685 16.4907 21.2241 17.1046C21.3224 17.3408 21.4663 17.6911 21.618 18.0605C21.9248 18.8075 22.2639 19.6328 22.3235 19.7523C22.4127 19.9308 22.4721 20.1389 22.3532 20.377C22.3354 20.4127 22.3189 20.4464 22.3031 20.4786C22.2138 20.6608 22.1482 20.7949 21.9967 20.9718C21.9371 21.0414 21.8755 21.1164 21.8139 21.1914C21.6912 21.3408 21.5686 21.4902 21.4618 21.5966C21.2832 21.7744 21.0974 21.9673 21.3054 22.3243C21.5134 22.6813 22.2291 23.849 23.2891 24.7945C24.4287 25.8109 25.4191 26.2405 25.9211 26.4583C26.0191 26.5008 26.0985 26.5353 26.1568 26.5644C26.5132 26.743 26.7212 26.7131 26.9293 26.4752C27.1373 26.2372 27.8207 25.4339 28.0583 25.077C28.296 24.7201 28.5338 24.7796 28.8606 24.8985C29.1876 25.0176 30.9407 25.8802 31.2973 26.0586C31.3669 26.0935 31.432 26.125 31.4923 26.1541Z" fill="#FDFDFD"/>
</svg>
