<svg width="56" height="62" viewBox="0 0 56 62" fill="none" xmlns="http://www.w3.org/2000/svg">
<path d="M55.0949 13.1213C51.3825 8.09333 46.1971 4.34556 40.2583 2.39811C34.3194 0.450667 27.9216 0.400125 21.9527 2.2535C15.9839 4.10688 10.7399 7.77226 6.94856 12.741C3.15722 17.7097 1.00654 23.7354 0.794965 29.9818C0.583389 36.2283 2.32141 42.3857 5.76785 47.5995C9.21428 52.8134 14.1982 56.8253 20.028 59.0783C25.8578 61.3313 32.2443 61.7138 38.3014 60.1727C44.3584 58.6315 49.7855 55.2432 53.8296 50.4779L52.1949 49.0906C48.4389 53.5165 43.3983 56.6635 37.7727 58.0948C32.1471 59.5262 26.2154 59.171 20.8009 57.0784C15.3863 54.9859 10.7574 51.2598 7.55642 46.4173C4.35546 41.5748 2.74123 35.8559 2.93774 30.0544C3.13424 24.2529 5.13174 18.6564 8.65304 14.0416C12.1743 9.42675 17.0448 6.02244 22.5885 4.30107C28.1323 2.5797 34.0744 2.62664 39.5902 4.43538C45.1061 6.24412 49.9221 9.72495 53.3701 14.3948L55.0949 13.1213Z" fill="#ED7600"/>
</svg>